<?xml version="1.0" encoding="UTF-8" standalone="no"?>
<svg
   xmlns:dc="http://purl.org/dc/elements/1.1/"
   xmlns:cc="http://creativecommons.org/ns#"
   xmlns:rdf="http://www.w3.org/1999/02/22-rdf-syntax-ns#"
   xmlns:svg="http://www.w3.org/2000/svg"
   xmlns="http://www.w3.org/2000/svg"
   xmlns:sodipodi="http://sodipodi.sourceforge.net/DTD/sodipodi-0.dtd"
   xmlns:inkscape="http://www.inkscape.org/namespaces/inkscape"
   width="128"
   height="128"
   viewBox="0 0 33.866667 33.866668"
   version="1.1"
   id="svg8"
   inkscape:version="1.0.2-2 (e86c870879, 2021-01-15)"
   sodipodi:docname="site_logo.svg">
  <defs
     id="defs2" />
  <sodipodi:namedview
     id="base"
     pagecolor="#ffffff"
     bordercolor="#666666"
     borderopacity="1.0"
     inkscape:pageopacity="0.0"
     inkscape:pageshadow="2"
     inkscape:zoom="2"
     inkscape:cx="128.28777"
     inkscape:cy="36.567741"
     inkscape:document-units="px"
     inkscape:current-layer="layer1"
     inkscape:document-rotation="0"
     showgrid="false"
     units="px"
     inkscape:window-width="1920"
     inkscape:window-height="1009"
     inkscape:window-x="-8"
     inkscape:window-y="-8"
     inkscape:window-maximized="1" />
  <metadata
     id="metadata5">
    <rdf:RDF>
      <cc:Work
         rdf:about="">
        <dc:format>image/svg+xml</dc:format>
        <dc:type
           rdf:resource="http://purl.org/dc/dcmitype/StillImage" />
        <dc:title></dc:title>
      </cc:Work>
    </rdf:RDF>
  </metadata>
  <g
     inkscape:label="Layer 1"
     inkscape:groupmode="layer"
     id="layer1">
    <path
       id="path24-3-1"
       style="fill:#000000;stroke-width:0.524341"
       d="m 1244.6107,-165.65939 c -3.201,0.008 -5.0356,0.67223 -8.353,2.2841 -2.5417,1.23492 -8.4236,3.98928 -13.0711,6.12056 -6.0043,2.75351 -10.1701,5.07705 -14.3939,8.02896 -6.5244,4.5593 -14.6533,10.85923 -19.513,15.12156 -1.7199,1.50794 -5.5451,4.51933 -8.5019,6.6921 -2.9567,2.17277 -5.8684,4.48191 -6.4703,5.13147 -0.602,0.64956 -1.9015,1.47601 -2.8877,1.83658 -0.9863,0.36057 -2.6018,1.37036 -3.5905,2.24431 -1.2068,1.06664 -2.1456,1.51485 -2.8562,1.3627 -1.4846,-0.31789 -3.5127,0.36996 -7.9762,2.7063 -4.9638,2.59819 -7.2565,3.09863 -13.0163,2.84065 -2.5017,-0.1121 -4.722,-0.0472 -4.9341,0.14418 -0.2175,0.19644 -0.9901,0.16781 -1.7735,-0.0661 -0.765,-0.22844 -2.0844,-0.28206 -2.9404,-0.11937 -0.8541,0.16238 -1.8226,0.25384 -2.1533,0.2036 -0.3302,-0.0502 -1.0215,0.10391 -1.5358,0.3421 -1.1823,0.54752 -7.0744,0.0956 -9.2941,-0.71262 -1.4267,-0.51952 -1.8893,-0.51476 -4.2116,0.0429 -1.936,0.46484 -4.3289,0.59458 -9.2775,0.50385 -7.8121,-0.14324 -16.2564,0.44962 -17.0594,1.19786 -0.4113,0.38326 -0.9213,0.41878 -1.8841,0.13126 -1.8781,-0.56084 -4.6117,-0.48763 -5.5583,0.14882 -0.6261,0.4209 -1.4152,0.45717 -3.5083,0.16072 -2.1535,-0.305 -3.1711,-0.24682 -5.024,0.28784 -2.6263,0.75781 -12.2249,0.92233 -14.4829,0.24804 -1.7237,-0.51475 -9.8118,-0.12194 -12.3739,0.601 -1.1653,0.3288 -2.3215,0.42111 -2.8081,0.22427 -0.4548,-0.18402 -2.0901,-0.5741 -3.6344,-0.86661 -1.5443,-0.29251 -4.362,-1.11423 -6.2611,-1.82624 -1.8991,-0.71202 -3.7202,-1.20214 -4.0473,-1.08934 -0.6612,0.228 -0.7651,0.11451 3.4277,3.74447 1.6609,1.43795 3.02,2.71286 3.02,2.83291 0,0.12005 1.205,1.32253 2.6778,2.6727 2.8817,2.64173 3.9944,3.994362 3.0061,3.653523 -0.3395,-0.117068 -1.4748,-1.139423 -2.5234,-2.272213 -2.6475,-2.86019 -6.6159,-6.17223 -7.3954,-6.17223 -0.3576,0 -1.2776,-0.68635 -2.0443,-1.52498 -1.6726,-1.82931 -8.1284,-5.8294 -8.8078,-5.45754 -0.2646,0.14482 0.8109,1.2385 2.3896,2.43086 1.5786,1.19235 2.8701,2.33028 2.8701,2.52852 0,0.19825 0.4911,0.58811 1.0914,0.8661 1.1726,0.54301 6.4426,6.53316 10.7962,12.271605 1.6357,2.155918 1.7592,2.594158 0.7302,2.594158 -0.7055,0 -1.9468,-1.44857 -2.3115,-2.697512 -0.1766,-0.604779 -2.7428,-3.722487 -7.9354,-9.640241 -3.792,-4.32145 -13.4181,-10.52222 -25.6729,-16.53697 -2.9567,-1.45121 -15.32271,-5.98413 -16.32456,-5.98413 -0.51576,0 -1.95219,-0.52886 -3.19205,-1.17512 -2.78831,-1.45336 -2.56259,-1.45946 2.18229,-0.0563 2.08121,0.61545 5.04757,1.34368 6.59185,1.61799 1.54428,0.27431 3.20246,0.67356 3.68505,0.88728 0.60026,0.26585 0.87746,0.24159 0.87746,-0.0765 0,-0.64014 -18.99689,-10.98951 -20.17189,-10.98951 -0.52061,0 -3.54955,-1.45411 -6.73138,-3.23133 -14.53989,-8.12128 -24.324,-10.86742 -32.76183,-9.1953 -3.54199,0.70192 -3.79219,0.82614 -7.07398,3.50883 -2.6996,2.20678 -3.02786,2.73796 -3.50832,5.67924 -0.35856,2.19507 -0.2326,4.16221 0.38965,6.08128 1.39592,4.30526 6.17075,11.48271 9.90999,14.89677 l 3.34191,3.05098 -0.81236,3.86229 c -0.72179,3.4327 -0.66839,4.16085 0.4806,6.54482 2.03232,4.21676 8.37134,15.651705 9.54619,17.220657 0.5849,0.781093 1.0635,1.800141 1.0635,2.264461 0,0.464314 0.51388,1.253596 1.14257,1.754415 0.62866,0.500819 1.39144,1.465479 1.69498,2.143538 4.33928,9.693129 6.28468,13.390022 10.54148,20.033402 2.76065,4.3084 5.49104,9.11479 6.06733,10.68101 1.03887,2.82345 1.03138,2.87005 -0.84543,5.48338 -1.57681,2.1956 -1.81993,2.99732 -1.45572,4.80023 0.41906,2.07454 4.98827,10.325236 6.71483,12.125346 0.70535,0.73534 1.2117,0.82644 3.40031,0.6103 5.2477,-0.51823 6.15845,-0.98319 4.15117,-2.11873 -0.703,-0.3977 -0.6328,-0.59731 0.3514,-1.00304 0.93916,-0.387166 1.22835,-1.075396 1.22835,-2.923336 0,-2.94679 1.01698,-3.34164 4.77025,-1.85156 1.42829,0.56705 2.70282,0.85355 2.83238,0.63665 0.12957,-0.21689 0.68297,-0.39429 1.2299,-0.39429 1.3232,0 1.27752,-1.03067 -0.0584,-1.31672 -1.92635,-0.41246 -1.21146,-1.42471 1.00615,-1.42471 1.7246,0 2.09549,-0.17538 2.28151,-1.07746 0.13553,-0.6572 0.59229,-1.03331 1.17202,-0.96532 1.29327,0.15175 3.6127,-0.28633 3.6127,-0.68212 0,-0.17696 -0.3949,-0.31334 -0.8775,-0.30334 -3.06113,0.0634 -4.83801,-0.18611 -5.2136,-0.73226 -0.58345,-0.84837 1.01953,-1.32964 3.50573,-1.05213 1.92947,0.21531 1.99727,0.17968 1.21287,-0.6382 -0.87168,-0.90881 -0.013,-1.9911 1.5787,-1.9911 0.9549,0 3.3037,-1.18666 3.3037,-1.66915 0,-0.20512 -0.4741,-0.27179 -1.0532,-0.14779 -0.6265,0.13412 -1.0527,0.004 -1.0527,-0.32195 0,-0.36645 0.7537,-0.53086 2.281,-0.49816 1.2548,0.0269 2.7278,-0.0301 3.2732,-0.12609 0.6107,-0.10752 2.1113,0.72861 3.9047,2.17558 5.5017,4.43905 14.0936,6.7647 26.34,7.1298 6.0474,0.18029 7.2572,0.0906 12.9863,-0.96377 l 6.3174,-1.1622 0.2119,-2.4629 c 0.145,-1.68651 -0.2641,-3.33953 -1.2976,-5.24361 -1.7975,-3.31181 -6.0038,-7.67653 -7.398,-7.67653 -0.603,0 -0.9927,-0.40322 -0.9927,-1.02733 0,-0.89068 -0.147,-0.95899 -1.1064,-0.5147 -1.1648,0.5394 -1.3412,0.46723 -3.1393,-1.28312 -0.3791,-0.36901 -1.1263,-0.57738 -1.6604,-0.46302 -0.5341,0.11437 -2.5871,-0.24879 -4.562,-0.80719 -5.2403,-1.4817 -16.8065,-1.96468 -23.0792,-0.96376 -4.7865,0.76378 -4.8275,0.7527 -5.2049,-1.40353 -0.19,-1.0857 -0.4059,-1.17147 -2.838,-1.13017 -2.3221,0.0394 -2.6324,-0.0648 -2.6324,-0.8816 0,-0.50926 0.3949,-0.95202 0.8774,-0.98392 0.4826,-0.0319 1.3516,-0.094 1.9307,-0.13798 0.5791,-0.0439 1.5758,-0.10555 2.2153,-0.13746 0.7688,-0.0383 1.0473,-0.30509 0.8217,-0.78651 -0.2636,-0.56247 0.1506,-0.78256 1.8206,-0.96893 2.8233,-0.31507 2.7335,-0.80368 -0.2951,-1.605591 -1.3512,-0.35778 -2.4567,-0.912178 -2.4567,-1.231966 0,-0.761971 2.0953,-1.200132 2.7807,-0.581361 0.3973,0.35873 0.6424,0.323598 0.9601,-0.138491 0.2848,-0.414063 1.3058,-0.620636 3.0701,-0.620636 h 2.6433 l -2.4097,-0.720885 c -3.1031,-0.928618 -4.1641,-1.827318 -2.9517,-2.499587 0.7328,-0.40636 1.5868,-0.295095 4.5465,0.591696 2.0044,0.600609 3.1563,0.86501 2.5595,0.58756 -0.78,-0.36263 -1.008,-1.018292 -0.8113,-2.331641 0.2309,-1.542 0.044,-1.895036 -1.1963,-2.265495 -0.8084,-0.2414 -1.4697,-0.611441 -1.4697,-0.822171 0,-0.60778 5.0964,0.737023 6.9148,1.824693 0.9077,0.54292 1.8549,0.873237 2.1048,0.733806 0.2499,-0.139419 -0.095,-0.477377 -0.7664,-0.751377 -1.1557,-0.471508 -1.152,-0.533082 0.068,-1.149281 1.2056,-0.608859 1.4051,-0.599779 3.0872,0.138491 0.9891,0.434142 2.3014,0.789099 2.9161,0.789099 1.4314,0 1.4857,-1.512256 0.065,-1.816426 -1.5085,-0.323001 -1.3042,-0.717542 0.678,-1.309481 1.354,-0.40432 1.952,-0.414412 2.7476,-0.04599 1.6348,0.757032 2.394,-4.314838 0.9762,-6.521563 -1.3805,-2.148703 -0.6349,-2.119964 1.8474,0.07131 1.0816,0.954783 2.3288,1.813726 2.7719,1.908926 0.4432,0.09525 1.2355,0.988433 1.7607,1.984891 0.9225,1.750211 1.6939,2.197801 2.513,1.458309 0.2154,-0.194439 -0.7137,-1.950452 -2.0645,-3.902085 -2.5763,-3.722243 -2.8469,-4.360977 -1.8459,-4.360977 0.3356,0 1.4175,1.03895 2.4045,2.308905 1.7185,2.21101 3.3027,3.345966 3.3027,2.366264 0,-0.878056 2.0866,0.461106 2.6675,1.71204 0.5754,1.23903 2.2464,1.942854 2.2464,0.946195 0,-0.877229 -5.7029,-10.164538 -6.8404,-11.139887 -0.5573,-0.477851 -0.8901,-1.074886 -0.7395,-1.327053 0.3445,-0.576638 5.6106,6.103819 7.2884,9.245947 0.6902,1.292524 1.5473,2.526014 1.9048,2.741436 0.4048,0.24389 0.4703,0.0594 0.1731,-0.489376 -0.5691,-1.051211 0.1572,-1.151017 1.4258,-0.195853 0.8077,0.608169 0.9661,0.493916 1.4051,-1.012859 0.2722,-0.933998 0.924,-1.789909 1.4485,-1.902209 0.5244,-0.112297 0.9534,-0.511635 0.9534,-0.887286 0,-1.094885 1.4761,-3.149676 2.2624,-3.149676 0.4268,0 0.549,0.479642 0.2997,1.17512 -0.5662,1.579817 0.4848,1.502124 1.3291,-0.09818 0.5055,-0.95808 1.0916,-1.284494 2.3699,-1.320335 2.0359,-0.05709 3.7649,-1.236916 3.2944,-2.247923 -0.2277,-0.489162 0.1072,-0.79402 1.019,-0.927077 0.7472,-0.109021 1.3681,-0.397671 1.3798,-0.641821 0.012,-0.244149 0.3471,-0.131918 0.7452,0.249598 0.9698,0.929481 2.0412,0.491246 2.0412,-0.834573 0,-0.590465 0.379,-1.285073 0.8423,-1.543576 1.2515,-0.698331 3.3693,-0.575221 3.3693,0.195855 0,0.517877 0.1872,0.561411 0.8424,0.195852 1.2844,-0.716698 1.8277,-0.579943 3.084,0.775663 l 1.1539,1.245402 0.9447,-0.951878 c 0.5196,-0.523412 0.9667,-0.775076 0.9932,-0.559657 0.026,0.215421 0.6997,0.828646 1.496,1.362707 1.4083,0.944518 1.4748,0.950188 2.4335,0.218591 0.9379,-0.715762 0.9855,-0.70203 0.9855,0.279053 0,1.282785 1.3769,1.851523 1.4774,0.610299 0.04,-0.497409 0.1485,-1.581526 0.2403,-2.409156 0.1071,-0.965642 -0.1695,-1.576422 -0.7716,-1.705322 -0.5159,-0.11048 -0.7424,-0.3774 -0.5033,-0.59325 0.2733,-0.24671 0.6342,-0.21255 0.9721,0.0925 0.3779,0.34121 0.6788,0.23736 1.0128,-0.34984 0.2613,-0.45931 0.7696,-0.8351 1.1297,-0.8351 0.9475,0 0.8052,2.892356 -0.169,3.435969 -0.6238,0.348149 -0.6277,0.699138 -0.016,1.447975 0.5427,0.664607 0.5883,1.308475 0.14,1.966288 -0.5628,0.826003 -0.3415,1.16355 1.4206,2.169377 1.1477,0.655108 2.0867,1.361419 2.0867,1.569413 0,0.207994 0.6426,0.377756 1.4283,0.377756 1.1333,0 1.2981,-0.141491 0.7969,-0.685231 -0.3475,-0.376984 -0.4928,-0.901089 -0.323,-1.164786 0.4016,-0.623948 3.4756,0.448408 3.9863,1.390613 0.1954,0.360477 0.201,-0.490093 0.012,-1.890323 -0.3953,-2.933915 0.1858,-2.647636 2.5115,1.237649 1.0632,1.776148 1.9866,2.670776 2.8923,2.80293 0.7317,0.106762 1.3302,0.537496 1.3302,0.957048 0,0.796639 2.9544,2.835542 4.1088,2.835484 0.8696,0 3.6055,2.59484 3.6375,3.449921 0.014,0.36467 0.4761,1.103725 1.0278,1.642277 1.381,1.347919 1.3423,0.22185 -0.072,-2.093929 -0.7129,-1.167432 -0.9319,-2.233231 -0.5984,-2.909901 0.4945,-1.00335 0.6019,-0.937884 1.7839,1.086755 0.6917,1.18481 1.2766,1.824522 1.3002,1.421101 0.036,-0.606898 0.2247,-0.649467 1.096,-0.245978 0.5791,0.268179 1.0532,0.828749 1.0532,1.245918 0,0.417139 0.3156,0.649904 0.7018,0.516766 0.386,-0.133141 0.7087,-0.628211 0.7177,-1.100193 0.014,-0.73546 0.1549,-0.690243 0.9881,0.316777 1.9481,2.354681 3.0612,4.785704 2.4412,5.331974 -0.8017,0.706371 -0.8178,2.696993 -0.021,2.696993 0.3388,0 1.0092,-0.263903 1.4898,-0.587044 1.1858,-0.79723 1.9254,-0.738267 2.4567,0.195855 0.2451,0.430839 0.9968,0.782897 1.6707,0.782897 1.5015,0 4.7627,1.867516 5.1305,2.937802 0.1661,0.4834 0.7299,0.73918 1.4722,0.66818 1.4247,-0.13629 1.4555,-0.0351 0.3871,1.2733 -1.0976,1.34419 -0.4614,1.57355 2.2195,0.79995 1.2299,-0.35488 2.3987,-0.55438 2.5967,-0.4439 0.4571,0.25504 -4.0385,3.77342 -4.8214,3.77342 -0.3206,0 -0.5829,0.24169 -0.5829,0.53743 0,0.59126 -2.7522,4.24144 -3.4339,4.55425 -1.4272,0.65492 -2.4843,1.81526 -2.9626,3.252 -1.0171,3.05487 -1.4501,3.99045 -2.3916,5.16919 -1.0678,1.33685 -1.7761,5.34268 -1.2294,6.95203 0.2444,0.71946 0.803,1.07694 1.6821,1.07694 0.8482,0 1.3162,0.27859 1.3162,0.78341 0,1.03804 1.931,1.01127 3.9646,-0.0548 1.5325,-0.80332 1.6737,-0.81019 3.4262,-0.1695 1.4387,0.52602 2.0429,0.56882 2.837,0.20102 0.604,-0.27969 3.1589,-0.45281 6.3655,-0.43201 2.946,0.0191 5.9463,-0.14179 6.6673,-0.35708 0.721,-0.2153 2.7398,-0.40725 4.4865,-0.42685 1.8736,-0.021 3.8162,-0.31591 4.7367,-0.71934 0.8582,-0.37612 3.2026,-0.80953 5.21,-0.96324 2.0074,-0.15371 4.0203,-0.52862 4.4731,-0.83303 0.8931,-0.60044 2.7419,-0.69231 6.1903,-0.30747 2.0083,0.22411 2.0945,0.29161 0.9654,0.76016 -1.0433,0.43291 -1.0969,0.62699 -0.337,1.22318 0.4966,0.3896 1.2866,1.20724 1.755,1.81694 0.9145,1.19045 0.384,1.16085 8.0134,0.44183 1.6224,-0.15292 3.486,-0.16323 4.1414,-0.0227 1.067,0.22846 1.0212,0.35648 -0.4398,1.22421 -2.3701,1.40771 -0.2017,1.28903 3.7688,-0.20619 3.2916,-1.23954 7.2193,-1.55506 8.7467,-0.7028 0.4654,0.25965 1.7128,0.47938 2.7725,0.48938 1.5705,0.0143 1.9676,0.2165 2.1487,1.0945 0.1676,0.81293 0.603,1.07746 1.7745,1.07746 0.8538,0 2.0933,0.35205 2.7544,0.7829 1.2818,0.83532 5.6935,1.10201 6.4802,0.3917 0.9524,-0.85982 2.92,-0.3585 3.8644,0.98444 0.7726,1.09874 1.5203,1.45931 3.7114,1.78852 1.5092,0.22673 2.8167,0.35635 2.9058,0.28835 0.4243,-0.32448 2.489,-4.58932 2.8091,-5.80274 1.1385,-4.31587 2.6705,-9.13166 3.6132,-11.35848 1.8123,-4.28096 1.9139,-5.12816 1.0185,-8.48631 -0.6965,-2.61226 -0.6878,-3.6263 0.043,-5.21725 0.7301,-1.58947 0.7382,-2.53502 0.042,-4.84725 -0.7224,-2.398886 -0.6985,-3.156814 0.1452,-4.596613 0.5557,-0.948309 1.2171,-2.605363 1.4697,-3.682463 0.2525,-1.077092 0.7298,-2.486882 1.0604,-3.133143 0.3306,-0.646261 0.7933,-1.659649 1.0284,-2.252059 0.6424,-1.619131 2.3047,-1.335662 2.8566,0.487309 0.4552,1.50331 1.4141,2.281616 2.2423,1.819527 0.2164,-0.12074 0.6496,-0.975545 0.9627,-1.899627 0.4523,-1.33486 0.2896,-1.984525 -0.7912,-3.161045 -1.6202,-1.763742 -1.6677,-2.338536 -0.3824,-4.618324 3.623,-6.426213 4.128,-7.935947 3.7233,-11.135755 -0.3568,-2.82123 -0.1237,-3.76663 2.0345,-8.25118 1.3406,-2.78557 2.9067,-6.73901 3.4804,-8.78551 0.5737,-2.04649 1.5316,-5.4726 2.1286,-7.614 0.6339,-2.2716 1.0768,-6.35083 1.065,-9.79217 -0.015,-4.20666 0.2983,-6.53929 1.0904,-8.13335 1.5651,-3.14948 0.9982,-11.33467 -1.0087,-14.56346 -1.9926,-3.20563 -3.6594,-3.9942 -9.9813,-4.72322 -3.5185,-0.40574 -5.9305,-0.63765 -7.8507,-0.63304 z m -14.333,29.20184 c 0.3038,0.0118 0.6565,0.15794 1.2257,0.44545 0.7168,0.36195 1.3055,0.85138 1.3085,1.08727 0.01,0.48741 3.2151,1.40766 4.9077,1.40766 1.3505,0 2.8086,0.74843 2.8086,1.44178 0,0.27594 -0.7891,0.61258 -1.7549,0.74775 -1.88,0.26329 -2.31,0.77433 -0.8775,1.04335 0.6841,0.12847 0.6653,0.30829 -0.086,0.81597 -1.3829,0.93478 -2.1957,0.80403 -2.1957,-0.35398 0,-0.82733 -0.2485,-0.96161 -1.4036,-0.75706 -1.155,0.20456 -1.404,0.0703 -1.404,-0.75706 0,-0.64965 -0.3875,-1.00562 -1.0945,-1.00562 -0.6149,0 -0.8857,-0.18821 -0.6191,-0.42892 0.2613,-0.23595 -0.217,-0.95108 -1.063,-1.58956 -1.2382,-0.93452 -1.3718,-1.27297 -0.6842,-1.7353 0.3731,-0.25084 0.628,-0.37353 0.9318,-0.36173 z m -284.87618,1.76578 c 0.55632,0 1.01182,0.17629 1.01182,0.39171 0,0.21542 -0.65047,0.39171 -1.44539,0.39171 -0.79493,0 -1.24992,-0.17629 -1.01131,-0.39171 0.2386,-0.21542 0.88856,-0.39171 1.44488,-0.39171 z m 281.53988,1.23248 c 1.9278,0.0126 2.5067,0.34831 1.602,0.95653 -0.9027,0.60692 -5.2523,0.75899 -5.8658,0.20516 -0.5647,-0.50988 1.0653,-1.06722 3.3554,-1.14722 0.33,-0.0115 0.6331,-0.0163 0.9084,-0.0145 z m -250.38623,0.72554 c 0.40886,0 0.74362,0.17629 0.74362,0.39171 0,0.21542 -0.13929,0.39171 -0.30954,0.39171 -0.17025,0 -0.50502,-0.17629 -0.74362,-0.39171 -0.23861,-0.21542 -0.0993,-0.39171 0.30954,-0.39171 z m -27.90734,3.85248 c 2.86529,0.0171 8.10554,1.43733 6.54017,1.7725 -0.57945,0.12407 -1.05317,0.47018 -1.05317,0.76895 0,0.41591 1.16472,0.53341 4.97179,0.50177 5.46481,-0.0454 5.9136,0.0305 4.76302,0.80409 -0.47706,0.32071 -0.50788,0.52555 -0.0796,0.52555 0.83435,0 2.72757,-1.19835 2.40037,-1.51929 -0.12553,-0.12307 0.0728,-0.27944 0.44028,-0.34778 0.88256,-0.16415 1.6716,1.02673 1.20872,1.82418 -0.2012,0.34663 -1.0769,0.82688 -1.94614,1.06711 -0.86924,0.24025 -3.15978,0.91042 -5.09013,1.48932 -1.93034,0.5789 -4.06259,1.41541 -4.73821,1.8588 -0.99422,0.65247 -1.22835,0.6865 -1.22835,0.17828 0,-0.34535 0.71057,-1.0832 1.57923,-1.63969 0.86866,-0.55648 1.80648,-1.35124 2.0836,-1.76578 0.43302,-0.64781 0.1799,-0.75344 -1.79938,-0.75344 -1.64243,0 -2.88123,0.33708 -4.32015,1.17512 -1.95129,1.13644 -4.56251,1.58484 -4.56251,0.78341 0,-0.21542 0.28459,-0.39171 0.63252,-0.39171 0.83612,0 3.57958,-2.61116 3.05253,-2.90524 -0.22532,-0.12573 -1.30444,-0.22842 -2.39831,-0.22842 -1.60735,0 -1.98902,-0.17266 -1.98902,-0.90071 0,-0.49547 -0.3736,-1.10935 -0.83044,-1.36426 -1.1517,-0.64263 -0.37541,-0.94913 2.36316,-0.93276 z m 280.20307,0.19999 c 0.064,0.005 0.1397,0.0652 0.2237,0.18241 0.2028,0.28274 0.178,0.62071 -0.055,0.75086 -0.2332,0.13015 -0.3994,-0.10129 -0.3689,-0.51418 0.021,-0.28517 0.094,-0.42808 0.2005,-0.41909 z m -251.20122,9.64695 -2.80758,0.83509 c -1.54428,0.45936 -2.91299,0.9903 -3.04168,1.17978 -0.37301,0.5492 -2.67224,0.39871 -3.61735,-0.23668 -0.71342,-0.47965 -0.57512,-0.64056 0.79168,-0.92191 0.91063,-0.18744 3.23472,-0.45657 5.16507,-0.59841 z m -25.01398,2.49494 c 0.0497,0.005 0.0759,0.0325 0.0729,0.0832 -0.0123,0.20274 -0.48635,0.71097 -1.05317,1.12913 -0.56683,0.41815 -1.0205,0.59445 -1.0082,0.39171 0.0123,-0.20274 0.48634,-0.71097 1.05316,-1.12913 0.42512,-0.31361 0.78635,-0.49126 0.93535,-0.47491 z m 12.02821,1.82263 c 0.38607,0 0.70176,0.17628 0.70176,0.39171 0,0.21542 -0.31569,0.3917 -0.70176,0.3917 -0.38607,0 -0.70229,-0.17628 -0.70229,-0.3917 0,-0.21543 0.31622,-0.39171 0.70229,-0.39171 z m 8.63461,0 c 4.28802,0 16.32017,1.53201 14.6358,1.86345 -0.52066,0.10245 -1.62612,-0.002 -2.4567,-0.23203 -0.83059,-0.23006 -3.0895,-0.4839 -5.01985,-0.56379 -1.93035,-0.0799 -4.06259,-0.2832 -4.73821,-0.45216 -0.90419,-0.22619 -1.22835,-0.13165 -1.22835,0.35863 0,0.36635 0.6314,0.75808 1.40354,0.87075 1.85725,0.271 1.7807,0.74171 -0.17519,1.07435 -3.25274,0.55319 -7.93847,0.62195 -8.82065,0.12971 -0.55792,-0.31131 -2.38371,-0.44856 -5.00021,-0.37621 -2.26694,0.0627 -4.31747,-0.063 -4.55683,-0.27905 -0.67447,-0.60894 4.31962,-1.21406 10.04022,-1.21646 4.52021,-0.002 5.06429,-0.0765 4.30103,-0.58963 -0.74882,-0.50344 -0.51764,-0.58756 1.6154,-0.58756 z m 258.40538,0.0279 c 1.5247,0.003 1.8046,0.15213 1.8046,0.50591 0,0.49461 -0.6908,0.6413 -3.0184,0.6413 -1.6601,0 -3.3811,0.20265 -3.8246,0.45011 -0.4435,0.24745 -1.8488,0.47981 -3.1233,0.51624 -1.2746,0.0364 -2.7913,0.18449 -3.3704,0.32918 -1.3275,0.33168 -2.8957,-0.19771 -2.2443,-0.75757 1.0027,-0.86171 3.5432,-1.27585 9.4796,-1.54461 2.0193,-0.0914 3.3821,-0.14224 4.2968,-0.14056 z m -280.72133,1.63762 c 0.90501,0.0186 1.74821,0.14992 1.74821,0.37827 0,0.16844 -0.96616,0.30644 -2.14715,0.30644 -1.23051,0 -1.96511,-0.16448 -1.72031,-0.3855 0.24731,-0.22328 1.21424,-0.3178 2.11925,-0.29921 z m 49.79073,2.77503 c 0.1121,-0.006 0.2469,0.0142 0.3917,0.0641 0.3861,0.13313 0.7018,0.31944 0.7018,0.41444 0,0.095 -0.3157,0.1726 -0.7018,0.1726 -0.3861,0 -0.7022,-0.18631 -0.7022,-0.41444 0,-0.14259 0.1237,-0.22637 0.3105,-0.23668 z m -26.9916,0.99683 c 3.78981,0.007 5.42497,0.17934 6.40839,0.67593 0.72619,0.36671 1.32033,0.78702 1.32033,0.93431 0,0.29703 -7.2676,0.36163 -9.47642,0.0842 -6.37826,-0.80101 -5.44345,-1.70716 1.7477,-1.69447 z m 4.98057,2.79776 c 0.32608,-0.006 0.69854,0.11584 0.99322,0.38189 0.23861,0.21542 1.05703,0.39171 1.8185,0.39171 0.76147,0 1.5663,0.26443 1.78852,0.58756 0.22223,0.32313 1.00187,0.58756 1.73271,0.58756 2.33348,0 1.42484,0.68567 -1.30328,0.9834 -3.79555,0.41424 -12.10774,0.51743 -14.56552,0.18087 -1.15821,-0.15859 -3.29045,-0.30936 -4.73821,-0.33486 -1.44776,-0.0255 -2.6324,-0.20408 -2.6324,-0.39688 0,-0.38613 4.21334,-0.83371 9.14053,-0.971 1.74572,-0.0486 3.53354,-0.21229 3.97288,-0.3638 0.43934,-0.15151 1.30118,-0.16814 1.91513,-0.0367 0.735,0.15738 1.11621,0.0243 1.11621,-0.39015 0,-0.3934 0.34247,-0.61198 0.76171,-0.61961 z m 49.28643,9.036148 c 0.013,-0.0016 0.03,-7.94e-4 0.05,0.0031 0.096,0.01889 0.2697,0.102518 0.5297,0.246497 0.4797,0.265686 0.6951,0.581689 0.479,0.702281 -0.2161,0.120591 -0.6087,-0.0969 -0.8723,-0.483175 -0.2083,-0.305271 -0.2785,-0.456665 -0.186,-0.468704 z m 5.0054,3.87935 c 0.193,0 0.689,0.352573 1.1022,0.783412 0.4132,0.430843 0.5935,0.7829 0.4005,0.7829 -0.193,0 -0.689,-0.352057 -1.1023,-0.7829 -0.4132,-0.430839 -0.5935,-0.783412 -0.4004,-0.783412 z m 19.0985,0.537435 c 0.2588,-0.05828 0.7953,1.014259 1.2299,2.889744 0.4402,1.899664 0.2715,2.490436 -0.5033,1.762168 -0.1719,-0.161568 -0.5074,-1.439389 -0.7457,-2.83962 -0.2048,-1.203415 -0.1581,-1.772417 0.019,-1.812292 z m 59.2016,8.862507 c -0.7672,0 -0.9112,1.17534 -0.26,2.12235 0.4856,0.70608 0.9163,0.753314 2.3265,0.255283 0.8491,-0.299871 0.8206,-0.502676 -0.1917,-1.364776 -0.654,-0.55693 -1.4976,-1.012857 -1.8748,-1.012857 z m 57.751,19.588983 c 1.2547,0.003 2.9887,0.11105 3.853,0.2403 2.341,0.35003 4.3951,2.48491 4.3951,4.56664 0,2.26111 -0.5299,3.02101 -2.1059,3.02101 -0.6895,0 -1.4355,0.26443 -1.6577,0.58756 -0.4426,0.64354 -3.2562,0.82126 -3.2562,0.20567 0,-0.21154 -0.8978,-0.28152 -2.0128,-0.1571 -1.7715,0.19771 -2.1044,0.0783 -2.7745,-0.99425 -0.4188,-0.67034 -1.2505,-1.32315 -1.8479,-1.45107 -1.195,-0.25587 -1.5047,-1.32395 -0.384,-1.32395 1.091,0 0.8258,-1.41355 -0.3689,-1.96681 -0.9553,-0.44238 -0.9418,-0.57487 0.124,-1.23196 0.8152,-0.50229 1.423,-0.60884 1.913,-0.33538 1.1196,0.62471 1.8413,0.47479 1.8413,-0.38241 0,-0.62375 0.4643,-0.78225 2.2815,-0.77825 z m -144.9059,4.08709 c 1.4569,2.6e-4 2.2355,0.41213 2.2355,1.22163 0,0.52403 0.3162,0.95291 0.7023,0.95291 1.4205,0 0.648,0.77603 -1.0025,1.00718 -0.9373,0.13125 -1.8767,0.48941 -2.0878,0.79633 -0.211,0.30692 -1.1656,0.72383 -2.1213,0.92656 -1.2145,0.25765 -1.9673,0.84572 -2.5016,1.95285 -0.8787,1.82075 -1.8519,2.0198 -2.8334,0.5793 -0.9793,-1.4372 -0.8459,-3.3852 0.341,-4.97024 0.7583,-1.01258 1.7851,-1.53962 3.9347,-2.01952 1.3404,-0.29926 2.459,-0.44721 3.3331,-0.447 z m 181.6241,18.6247 c -0.1703,0 -0.5051,0.17629 -0.7437,0.39171 -0.2386,0.21542 -0.099,0.39171 0.3096,0.39171 0.4088,0 0.7436,-0.17629 0.7436,-0.39171 0,-0.21542 -0.1393,-0.39171 -0.3095,-0.39171 z m -149.5144,1.17513 c -0.1703,0 -0.5045,0.17628 -0.7431,0.39171 -0.2387,0.21541 -0.099,0.3917 0.3095,0.3917 0.4089,0 0.7431,-0.17629 0.7431,-0.3917 0,-0.21543 -0.1393,-0.39171 -0.3095,-0.39171 z m 58.8853,5.31078 c -0.9695,0.027 -2.42,0.58656 -2.42,1.10691 0,0.28313 -0.9396,1.290146 -2.0878,2.238106 -1.1763,0.97118 -1.9257,2.0159 -1.7167,2.39313 0.2251,0.40636 -0.2889,0.98975 -1.3079,1.48415 -1.2104,0.58722 -1.7109,1.26572 -1.7927,2.43086 -0.1275,1.81649 -0.6088,2.30734 -1.4857,1.51567 -0.389,-0.35126 -1.0398,-0.42715 -1.8923,-0.22066 -0.7146,0.17305 -1.6398,0.28605 -2.0562,0.25115 -0.4165,-0.0349 -1.1807,0.37825 -1.6981,0.91777 -1.0061,1.04896 -3.0457,1.38863 -2.3611,0.39326 0.5016,-0.72932 -0.4028,-0.75353 -2.2226,-0.0594 -2.051,0.78222 -5.7789,1.10346 -6.1955,0.53382 -0.257,-0.35138 -0.5258,-0.3312 -1.0382,0.0786 -0.5883,0.47038 -0.8619,0.4584 -1.8288,-0.0811 -0.6254,-0.34892 -1.5228,-0.55756 -1.9942,-0.46406 -0.4714,0.0936 -2.088,0.23511 -3.5926,0.31471 -2.2483,0.11895 -3.0607,0.41133 -4.5625,1.64228 -2.8222,2.31328 -3.8869,2.27696 -3.3186,-0.11317 0.5903,-2.48333 -0.5389,-4.16077 -2.4226,-3.59823 -2.0555,0.61381 -2.7706,0.44425 -3.7812,-0.8971 -0.8408,-1.11601 -1.293,-1.27597 -3.6685,-1.29657 -2.3831,-0.0207 -2.8555,0.13491 -3.9207,1.28933 -0.6661,0.72191 -1.2113,1.83377 -1.2113,2.47117 0,1.17847 -1.5207,1.61273 -2.5125,0.71727 -0.3347,-0.30217 -0.6918,-0.24022 -1.1291,0.19585 -0.3519,0.35079 -1.0979,0.63769 -1.6578,0.63769 -0.5599,0 -1.018,0.27446 -1.018,0.6103 0,0.33586 -0.3092,0.50401 -0.6873,0.37362 -0.3781,-0.13038 -1.3091,-0.0511 -2.0686,0.1757 -1.0764,0.32143 -1.5214,0.27192 -2.0175,-0.22273 -0.5177,-0.51622 -0.9173,-0.5505 -2.143,-0.18448 -0.8288,0.24748 -1.5069,0.34973 -1.5069,0.22686 0,-0.12287 -0.6743,-0.0224 -1.4986,0.22375 -1.1152,0.33302 -1.2686,0.52733 -0.5995,0.7581 0.6784,0.23395 0.4762,0.546 -0.8227,1.27072 -0.947,0.52841 -2.1775,1.07486 -2.7347,1.2144 -0.7683,0.19241 -0.8013,0.30886 -0.1359,0.48214 1.2078,0.3145 1.105,0.94671 -0.154,0.94671 -0.956,0 -4.6815,3.85864 -5.4834,5.6792397 -0.1897,0.43085 -0.5601,1.07387 -0.8232,1.42885 -0.3048,0.41142 0.067,0.92884 1.0258,1.42731 1.1021,0.57292 1.2743,0.86145 0.6434,1.079 -0.6393,0.22046 -0.5401,0.42766 0.385,0.80512 1.1787,0.48092 1.151,0.59994 -0.5106,2.19263 -0.9662,0.92613 -1.9768,2.25466999 -2.2464,2.95227999 -0.4475,1.15833001 -0.2724,1.34009001 2.0206,2.09496001 2.8769,0.94714 2.9563,1.05693 1.2826,1.78284 -1.159,0.50269 -1.1611,0.56246 -0.025,1.05574 0.9512,0.41306 1.0253,0.62911 0.3514,1.02837 -0.67,0.39689 -0.6648,0.54372 0.024,0.68471 0.4826,0.0987 0.8775,0.51091 0.8775,0.91622 0,0.84186 1.9568,1.54401 4.3408,1.55701 1.1256,0.006 1.9673,0.39748 2.7373,1.2728003 0.7657,0.87054 1.6896,1.30219 2.9678,1.38699 1.0207,0.0677 2.4904,0.57318 3.2654,1.12293 0.9285,0.65862 2.1728,1.02107 3.6483,1.06247 1.2317,0.0346 2.368,0.27804 2.5255,0.54156 0.4266,0.7142 1.8937,0.58046 3.3279,-0.30385 0.6988,-0.43084 1.7832,-0.78342 2.4097,-0.78342 0.6265,0 1.6798,-0.35257 2.3409,-0.78341 0.6612,-0.43084 1.7582,-0.80358 2.4376,-0.82838 0.6794,-0.0248 1.7091,-0.0692 2.2883,-0.0982 0.6448,-0.0323 1.065,-0.46452 1.0846,-1.11518 0.041,-1.3686503 0.4669,-1.5759503 2.6164,-1.2748503 1.1633,0.16291 1.9003,0.60151 2.1699,1.2919103 0.7589,1.94311 1.4928,2.24537 3.5905,1.47846 1.2634,-0.4619 2.5211,-0.5989 3.9207,-0.42737 2.7134,0.33253 2.84,1.43247 0.1302,1.1312 -1.1104,-0.12344 -2.8251,0.0459 -4.0364,0.39894 -2.4045,0.70069 -3.8608,0.79104 -3.8608,0.23926 0,-0.20862 -0.4735,-0.27799 -1.0526,-0.15399 -1.5212,0.32572 -1.2939,0.92501 0.3509,0.92501 0.7721,0 1.404,0.17623 1.404,0.39171 0,0.21541 0.6052,0.3917 1.3451,0.3917 0.74,0 1.5049,0.22012 1.6997,0.48938 0.2115,0.29248 0.3762,0.21361 0.4093,-0.19586 0.031,-0.37698 0.1878,-0.68523 0.3493,-0.68522 0.1615,-1e-5 0.7379,-0.0955 1.2816,-0.21188 0.787,-0.16852 0.9665,0.25047 0.879,2.05621 -0.1264,2.60644 -0.8567,4.14377 -1.8123,3.81423 -0.9905,-0.34158 -6.4033,2.96518 -5.9449,3.63183 0.2139,0.31104 0.3892,0.74888 0.3892,0.97306 0,0.27708 0.2881,0.27383 0.9012,-0.0103 1.2495,-0.57862 6.1755,0.0849 7.0414,0.94826 0.6392,0.63732 0.7381,0.63417 1.6335,-0.0491 0.9153,-0.69845 0.9529,-0.6951 0.9529,0.0853 0,0.49255 0.573,0.89608 1.4547,1.02475 2.2445,0.32749 7.1506,-0.0504 7.843,-0.6041 0.3917,-0.31333 0.526,0.0454 0.3648,0.97307 -0.2608,1.50011 0.5523,1.99021 1.358,0.81855 0.3714,-0.54001 0.5547,-0.49041 1.0811,0.29352 0.63,0.93813 0.6418,0.93909 1.8443,0.16072 1.8074,-1.1699 4.5323,-1.96884 4.8576,-1.42421 0.4402,0.73677 1.9176,0.50937 4.699,-0.72398 1.4503,-0.64312 2.9504,-1.06131 3.3336,-0.92915 0.3833,0.13216 0.9661,-0.002 1.295,-0.2992 0.6292,-0.56779 5.1767,-0.67974 8.5323,-0.20981 1.4664,0.20535 1.9406,0.0971 2.2945,-0.52503 0.2453,-0.43127 0.8985,-0.78445 1.4515,-0.78445 0.5976,0 1.0057,-0.38715 1.0057,-0.95395 0,-0.72037 -0.5586,-1.06643 -2.2815,-1.4149 -1.3617,-0.27535 -2.9749,-1.07516 -4.0019,-1.98386 -0.9462,-0.83732 -1.973,-1.52238 -2.2815,-1.52238 -0.3084,0 -0.5607,-0.35258 -0.5607,-0.78342 0,-0.50747 0.4683,-0.78341 1.3291,-0.78341 1.4839,0 2.4112,-0.87732 2.4836,-2.34973 0.045,-0.90818 0.2645,-0.96954 3.0314,-0.84749 1.9744,0.0871 2.9832,-0.0267 2.9832,-0.3359 0,-0.25699 0.443,-0.37217 0.984,-0.25632 0.5849,0.12524 1.1271,-0.096 1.3379,-0.5457 0.5203,-1.11021 3.9447,-0.97938 5.9996,0.22944 1.7347,1.02047 3.2324,1.24006 3.9625,0.58085 0.2386,-0.21542 1.4418,-0.39226 2.6738,-0.39326 1.4601,-10e-4 2.9733,-0.37653 4.346,-1.07745 1.4312,-0.73082 3.0051,-1.1076803 4.9134,-1.1766803 1.5697,-0.0568 3.1741,-0.37616 3.6385,-0.7245 0.4569,-0.3426 1.1978,-0.49679 1.6464,-0.3421 0.4486,0.1547 1.6541,0.0491 2.6789,-0.23461 2.5074,-0.69401 7.1277,-3.13658 7.1277,-3.76824 0,-0.27942 0.4629,-0.5085 1.0284,-0.5085 0.5655,0 1.3771,-0.36361 1.8035,-0.80822 1.2982,-1.35343 -0.2747,-1.92321 -5.55,-2.01021 l -4.6519,-0.0765 4.7382,-0.13694 c 4.3382,-0.12545 6.0464,-0.56394001 3.8602,-0.99063001 -0.6456,-0.126 -0.558,-0.37215 0.3313,-0.93225 1.0064,-0.63390999 1.1086,-1.11383999 0.6118,-2.86751999 -0.6951,-2.4535 -1.9816,-3.14451 -5.8565,-3.14451 -1.811,0 -2.5547,-0.14456 -2.2334,-0.4346 0.2841,-0.25662 1.4677,-0.34557 2.8871,-0.21704 3.6621,0.33159 5.4443,-0.83492 4.8669,-3.1853397 -0.2412,-0.98175 -0.907,-2.07371 -1.4795,-2.42672 -0.5725,-0.35301 -1.2477,-1.21838 -1.5002,-1.92288 -0.2525,-0.70449 -0.8881,-1.37242 -1.4123,-1.48467 -0.5242,-0.11224 -0.9529,-0.44973 -0.9529,-0.74982 0,-0.30008 -0.6525,-0.54571 -1.45,-0.54571 -2.0366,0 -4.1657,-0.70505 -4.1657,-1.37976 0,-0.35672 -0.5893,-0.53444 -1.5792,-0.47594 -1.1851,0.07 -1.8304,-0.22458 -2.5838,-1.17977 -0.9941,-1.26022 -2.3693,-1.63788 -3.2076,-0.88108 -0.6978,0.63002 -1.2864,0.47934 -4.533,-1.16014 -2.7139,-1.37041 -3.1694,-1.47817 -3.899,-0.92139 -0.7362,0.56176 -0.8688,0.53877 -1.2201,-0.21084 -0.2449,-0.52263 -0.951,-0.84129 -1.864,-0.84129 -1.1336,0 -1.4714,-0.24607 -1.4764,-1.07694 -0.01,-1.41043 -3.2193,-4.49303 -7.3489,-7.0559 -3.0225,-1.875696 -3.5639,-2.050516 -6.3562,-2.050516 -1.6787,0 -3.2479,-0.17674 -3.4871,-0.39274 -0.1447,-0.13061 -0.4143,-0.18054 -0.7374,-0.17157 z m 66.0471,42.6754357 c -0.325,-0.0147 -0.6661,0.10651 -1.0557,0.36845 -1.4056,0.94501 0.8484,2.04981 6.2926,3.0840503 1.806,0.34309 3.1979,0.27916 4.0297,-0.185 0.5998,-0.33466 0.062,-0.7262103 -2.141,-1.5596003 -1.6179,-0.61201 -3.5891,-1.11582 -4.3806,-1.11983 -0.7914,-0.004 -1.7685,-0.19092 -2.1709,-0.41547 -0.1904,-0.10622 -0.3791,-0.16376 -0.5741,-0.1726 z m -4.0034,1.51515 c -0.2549,0.009 -0.4461,0.10417 -0.6392,0.2744 -0.903,0.79597 -0.804,1.0523403 0.5788,1.5017203 1.3919,0.45238 3.2418,0.54025 3.8803,0.18397 0.236,-0.13167 -0.5293,-0.68925 -1.7006,-1.2392003 -1.0909,-0.5122 -1.6943,-0.73612 -2.1193,-0.72089 z m -58.1463,1.8076403 c 0.3861,0 0.7018,0.17629 0.7018,0.39171 0,0.21542 -0.3157,0.3917 -0.7018,0.3917 -0.3861,0 -0.7018,-0.17628 -0.7018,-0.3917 0,-0.21542 0.3157,-0.39171 0.7018,-0.39171 z m 58.5106,1.33635 c -5.4123,0.0245 -7.2688,0.27429 -7.2688,0.90589 0,0.45372 -0.5346,0.53055 -2.3595,0.33952 -2.8775,-0.30121 -4.7078,0.55439 -3.2634,1.52548 0.7541,0.50706 0.586,0.52794 -1.2965,0.16175 -1.905,-0.37055 -2.4971,-0.28798 -4.9755,0.69092 -1.5472,0.61116 -2.7416,1.23346 -2.6541,1.38286 0.088,0.14942 2.6863,1.75958 5.7749,3.57807 l 5.6157,3.30626 1.636,-1.76527 c 0.9,-0.97089 1.6898,-2.53518 1.755,-3.47575 0.097,-1.39279 0.3325,-1.67185 1.2728,-1.50534 1.5897,0.28153 3.558,-0.90067 3.0339,-1.82211 -0.4778,-0.84007 0.4568,-0.95432 2.59,-0.31729 1.7693,0.52836 7.1403,-0.26836 8.8289,-1.30948 1.8912,-1.16604 0.1082,-1.65681 -6.1469,-1.6924 -0.9233,-0.005 -1.7693,-0.007 -2.5425,-0.003 z m -51.2356,1.14929 c -0.1064,-0.009 -0.1789,0.13392 -0.2,0.41909 -0.031,0.41288 0.1352,0.64433 0.3685,0.51418 0.2332,-0.13014 0.258,-0.46754 0.055,-0.75034 -0.084,-0.11717 -0.16,-0.17754 -0.2238,-0.18293 z m 70.5807,0.69401 c -1.8522,0.0285 -3.4712,0.68049 -6.4389,2.20607 -2.4096,1.23867 -4.3326,2.48713 -4.2736,2.77451 0.075,0.36667 -0.4098,0.44999 -1.6263,0.27957 -1.517,-0.21246 -1.8682,-0.0509 -2.8153,1.29449 -0.5952,0.84544 -1.8487,1.76616 -2.7854,2.04587 -1.7055,0.50938 -4.4627,2.6257 -4.4627,3.42563 0,0.53308 2.9805,0.83631 10.1781,1.0356 3.0886,0.0855 7.5606,0.34517 9.9374,0.57671 2.3768,0.23154 5.3775,0.41362 6.6684,0.40462 1.2908,-0.009 4.7158,0.17374 7.6114,0.40515 2.8955,0.23141 7.4757,0.56377 10.1782,0.73897 7.2012,0.4668 7.3481,0.46798 8.7457,0.0506 1.0568,-0.31561 1.2323,-0.74673 0.9958,-2.44791 -0.7678,-5.52209 -3.2841,-7.69014 -8.3881,-7.22798 -1.3236,0.11985 -2.4061,0.0747 -2.4061,-0.10026 0,-0.17494 -0.9476,-0.4242 -2.1058,-0.55345 -1.1582,-0.12925 -2.1058,-0.48313 -2.1058,-0.78652 0,-0.30339 -0.6319,-0.64387 -1.4041,-0.75654 -0.8752,-0.1277 -1.404,-0.53416 -1.404,-1.07952 0,-0.48112 -0.5527,-1.10858 -1.2283,-1.39475 -1.4907,-0.63114 -4.5302,-0.70082 -5.5584,-0.12712 -0.532,0.29684 -1.5157,0.23991 -3.3848,-0.19585 -1.621,-0.37792 -2.8161,-0.585 -3.9274,-0.56793 z m -84.4212,0.093 c 0.1627,0.0127 0.2322,0.25214 0.2372,0.74207 0.012,1.16962 -0.3327,1.38015 -0.9023,0.55191 -0.1986,-0.28881 -0.079,-0.77335 0.2651,-1.07694 0.1709,-0.15065 0.3024,-0.22466 0.4,-0.21704 z m 111.5555,0.87023 c -0.1546,-0.004 -0.2991,0.0641 -0.4491,0.19637 -1.1025,0.97197 -0.7056,2.43351 0.926,3.40806 l 1.5798,0.9431 0.2067,-0.92656 c 0.1137,-0.50962 -0.3083,-1.61403 -0.9374,-2.45411 -0.5978,-0.79829 -0.9859,-1.15766 -1.326,-1.16686 z m -71.746,3.84059 c -0.087,0.003 -0.1622,0.0144 -0.2223,0.0351 -1.2534,0.43224 -0.811,1.34473 1.1979,2.46962 3.3199,1.85896 8.4373,4.00389 9.5529,4.00389 0.5879,0 1.2642,0.17629 1.5028,0.39171 0.6657,0.60103 1.7549,0.46454 1.7549,-0.21963 0,-0.67115 -4.853,-4.08915 -5.8058,-4.08915 -0.3272,0 -0.3994,0.17628 -0.1608,0.39171 0.2386,0.21541 -0.022,0.3917 -0.5787,0.3917 -0.5569,0 -1.1649,-0.32554 -1.3514,-0.72347 -0.4083,-0.87126 -4.5779,-2.69951 -5.8895,-2.65152 z m 36.5864,1.80816 c 0.2714,0 1.2968,0.35258 2.2784,0.78342 0.9816,0.43084 1.5053,0.77749 1.1637,0.77049 -0.7443,-0.0156 -4.1519,-1.55391 -3.4421,-1.55391 z m -46.9874,3.28559 c -0.4816,0.002 -0.4091,0.33672 0.062,1.31671 0.2328,0.4847 0.7023,0.8816 1.0434,0.8816 1.062,0 0.678,-1.86224 -0.4331,-2.10013 -0.2895,-0.062 -0.5112,-0.0987 -0.6718,-0.0982 z m -3.3812,0.64596 c -0.7134,-0.0269 -1.2112,0.31285 -1.2112,0.96479 0,1.04875 -1.848,1.35767 -3.2939,0.55087 -0.8593,-0.47949 -3.7259,0.16182 -3.7259,0.83355 0,0.20784 -0.5527,0.37885 -1.2283,0.38085 -1.5849,0.004 -3.1099,1.72791 -2.0511,2.31872 1.2253,0.68365 -0.3559,0.47786 -1.7544,-0.22841 -1.1707,-0.59112 -1.2836,-0.59248 -1.2836,-0.015 0,1.01648 -2.7148,2.16758 -4.7971,2.03398 -2.1461,-0.13768 -4.3279,0.77241 -4.3279,1.80506 0,0.57406 -0.4794,0.67967 -2.5978,0.57361 -2.0663,-0.10346 -2.8676,0.0612 -3.9171,0.80563 -0.7256,0.51473 -1.5739,0.84838 -1.8851,0.74104 -0.3113,-0.10734 -0.7246,0.14363 -0.9188,0.55811 -0.2546,0.54343 -0.7671,0.69325 -1.8351,0.53743 -0.8148,-0.1189 -1.481,-0.0388 -1.481,0.17777 0,0.21657 -1.1824,0.51744 -2.6273,0.6687 -1.4448,0.15123 -2.9395,0.38288 -3.3217,0.51469 -1.0645,0.36711 -3.4446,0.40985 -4.2292,0.076 -0.8717,-0.37093 -9.6189,-0.23434 -10.787,0.16846 -0.4937,0.17028 -1.8081,-0.10681 -3.1067,-0.65526 -1.2381,-0.52287 -3.12,-1.06997 -4.1817,-1.21594 -1.0617,-0.14597 -1.9306,-0.48259 -1.9311,-0.74776 0,-0.75553 -5.3733,-3.94084 -6.178,-3.66334 -0.3963,0.13666 -0.8527,0.0279 -1.0139,-0.24185 -0.1611,-0.2697 -0.8986,-0.49118 -1.6391,-0.49196 -0.9461,-0.001 -1.4123,-0.32218 -1.5684,-1.079 -0.1829,-0.88686 -0.5666,-1.07694 -2.1725,-1.07694 -1.9258,0 -3.1006,0.54818 -4.7863,2.23397 -0.5444,0.54444 -0.6089,0.95062 -0.1751,1.10019 0.3781,0.1304 0.6873,0.69766 0.6873,1.26039 0,1.21724 1.8162,2.45563 3.6008,2.45567 0.7023,-6e-5 1.74,0.50004 2.3063,1.11104 1.1694,1.26179 5.4015,3.19722 6.9908,3.19722 0.5821,0 1.2533,0.17629 1.4919,0.39171 0.2386,0.21542 1.3621,0.39171 2.4965,0.39171 1.3649,0 2.9681,0.45643 4.7402,1.34978 2.8095,1.41624 4.3363,1.72035 10.663,2.12442 9.3001,0.5939 18.6953,-0.16377 21.8637,-1.76371 1.0388,-0.52454 1.4712,-0.55239 2.3405,-0.14987 0.8949,0.41442 1.0661,0.3637 1.0661,-0.31471 0,-0.44451 0.3168,-0.91746 0.7043,-1.0511 0.7765,-0.26779 0.2086,-2.06245 -0.9012,-2.84788 -0.3879,-0.27448 -0.4969,-0.61558 -0.2424,-0.75758 0.5651,-0.31529 1.7346,0.30335 2.8019,1.48208 0.4379,0.4836 1.4277,0.92808 2.1999,0.98754 0.7721,0.0594 2.2605,0.20146 3.3073,0.31574 1.0467,0.11429 2.0915,0.0373 2.3223,-0.17105 0.2308,-0.20837 -0.082,-0.37879 -0.6966,-0.37879 -1.8118,0 -2.0136,-1.06249 -0.4362,-2.29856 0.8082,-0.63331 1.4697,-1.34477 1.4697,-1.58079 0,-0.70619 1.1558,-0.48756 2.3906,0.45217 l 1.158,0.8816 -0.4284,-0.9002 c -0.2356,-0.49503 -0.06,-1.14759 0.3897,-1.45004 0.4499,-0.30245 0.636,-0.86951 0.4139,-1.25987 -0.4538,-0.79788 2.0156,-1.94403 2.7533,-1.27796 0.7563,0.68282 1.4298,0.41586 3.451,-1.36839 1.0916,-0.96363 2.603,-1.86145 3.3584,-1.99523 1.0604,-0.18778 1.2728,-0.46665 0.9323,-1.2237 -0.3177,-0.7063 -0.1869,-0.93149 0.4671,-0.80408 0.4995,0.0973 0.8152,0.46701 0.7018,0.82165 -0.1183,0.36987 0.2558,0.64492 0.8775,0.64492 1.3364,0 1.5275,-2.72916 0.2413,-3.44681 -0.5224,-0.29147 -1.0282,-0.43919 -1.4563,-0.45527 z m -85.7477,2.79776 c -0.491,0.0327 -1.1679,0.35205 -2.1513,0.94412 -0.9269,0.5581 -2.0172,0.90013 -2.4231,0.76017 -1.0829,-0.37343 -0.8578,0.64975 0.3369,1.53117 0.5669,0.41815 1.031,1.09212 1.031,1.49758 0,1.13294 2.1459,0.6749 3.5879,-0.76584 0.8573,-0.85669 1.1233,-1.68827 0.8454,-2.64377 -0.2715,-0.93368 -0.5955,-1.36545 -1.2268,-1.32343 z m -23.3934,17.52658 c -0.096,0.009 -0.1928,0.018 -0.2863,0.0284 0.032,0.004 0.065,0.008 0.097,0.0124 0.076,-0.0165 0.1108,-0.0238 0.1892,-0.0408 z" />
    <ellipse
       style="fill:#ffffff;fill-opacity:1;stroke:#000000;stroke-width:0.805039;stroke-miterlimit:4;stroke-dasharray:none;stroke-opacity:1"
       id="path317"
       cx="16.933464"
       cy="16.914434"
       rx="16.529911"
       ry="16.247334"
       inkscape:export-xdpi="97.634506"
       inkscape:export-ydpi="97.634506" />
    <path
       id="path24-3"
       style="fill:#000000;stroke-width:0.042959"
       d="m 26.213861,5.339734 c -0.200406,8.152e-4 -0.31526,0.072077 -0.52296,0.2448877 -0.159128,0.1324009 -0.527376,0.4277073 -0.818342,0.6562099 -0.375915,0.2952171 -0.636725,0.5443334 -0.901168,0.8608201 -0.408476,0.4888222 -0.9174,1.1642642 -1.221656,1.6212471 -0.107688,0.1616722 -0.347166,0.484536 -0.532279,0.7174873 -0.185113,0.2329536 -0.367407,0.4805252 -0.405093,0.5501683 -0.0377,0.069647 -0.119048,0.1582486 -0.180793,0.1969066 -0.06174,0.03867 -0.162888,0.14693 -0.224787,0.240622 -0.07555,0.114365 -0.134331,0.162416 -0.178819,0.146101 -0.09297,-0.03408 -0.219921,0.03967 -0.49937,0.290153 -0.310771,0.278563 -0.454311,0.332218 -0.814914,0.304558 -0.156629,-0.01206 -0.295637,-0.0051 -0.30891,0.01545 -0.01357,0.02105 -0.06198,0.01801 -0.111031,-0.0072 -0.0479,-0.02449 -0.130503,-0.03024 -0.184092,-0.01281 -0.05346,0.01742 -0.114104,0.02722 -0.134812,0.02181 -0.02066,-0.0054 -0.06394,0.0112 -0.09615,0.03669 -0.07402,0.05872 -0.442908,0.01018 -0.581874,-0.0764 -0.0893,-0.0557 -0.118281,-0.05519 -0.263679,0.0046 -0.121202,0.04983 -0.271024,0.06375 -0.580838,0.05403 -0.489094,-0.01537 -1.017774,0.04819 -1.068045,0.128421 -0.02574,0.0411 -0.05767,0.0449 -0.117961,0.01402 -0.11759,-0.06012 -0.288725,-0.05227 -0.34799,0.01596 -0.03919,0.04513 -0.08861,0.049 -0.219647,0.01723 -0.134828,-0.03271 -0.198532,-0.02646 -0.31454,0.03087 -0.164426,0.08125 -0.765365,0.09889 -0.90673,0.02659 -0.107926,-0.05517 -0.61429,-0.01312 -0.774701,0.06444 -0.07296,0.03525 -0.145346,0.04514 -0.175806,0.02404 -0.02849,-0.01975 -0.130863,-0.06156 -0.22754,-0.09293 -0.09667,-0.03136 -0.273093,-0.119454 -0.391993,-0.195795 -0.118901,-0.07634 -0.232913,-0.128891 -0.253391,-0.116806 -0.04139,0.02445 -0.0479,0.01221 0.214599,0.40146 0.103971,0.154167 0.189071,0.290859 0.189071,0.303729 0,0.01281 0.07544,0.141791 0.167656,0.286551 0.180417,0.283232 0.250078,0.428255 0.188201,0.391709 -0.02125,-0.01252 -0.09232,-0.122153 -0.157982,-0.243612 -0.165754,-0.306654 -0.414204,-0.661751 -0.463008,-0.661751 -0.02238,0 -0.07997,-0.07357 -0.127984,-0.1635 -0.104712,-0.196121 -0.508896,-0.624987 -0.55143,-0.585119 -0.01657,0.01551 0.05078,0.132777 0.149596,0.260623 0.09885,0.127833 0.179691,0.24984 0.179691,0.271092 0,0.02125 0.03075,0.06306 0.06834,0.09285 0.07339,0.05821 0.403357,0.70045 0.675924,1.31569 0.102415,0.231148 0.11014,0.278132 0.04572,0.278132 -0.04415,0 -0.12188,-0.155308 -0.144713,-0.289211 C 13.276661,12.71496 13.11589,12.380692 12.790794,11.746225 12.553378,11.282944 11.950707,10.618132 11.183471,9.9732671 10.998357,9.8176738 10.224155,9.3316814 10.16143,9.3316814 c -0.03228,0 -0.122226,-0.056696 -0.1998453,-0.1259956 -0.1745676,-0.1558203 -0.1604361,-0.1564762 0.1366203,-0.00608 0.130292,0.06598 0.316016,0.1440659 0.412697,0.1734738 0.09668,0.029401 0.2005,0.072216 0.230713,0.095129 0.03757,0.028496 0.05493,0.02589 0.05493,-0.0081 0,-0.068634 -1.1893438,-1.1782334 -1.2629081,-1.1782334 -0.032599,0 -0.2222285,-0.1558999 -0.4214342,-0.3464427 C 8.2019166,7.0646866 7.5893594,6.7702593 7.0610897,6.9495347 6.8393359,7.0247854 6.8236709,7.0381084 6.618206,7.3257325 6.4491908,7.56233 6.42864,7.6192812 6.3985601,7.9346275 6.3761111,8.169971 6.3840009,8.3808764 6.4229542,8.586629 6.510351,9.0482129 6.8092898,9.8177388 7.043393,10.183774 l 0.2092281,0.32711 -0.050866,0.414091 c -0.045199,0.368035 -0.041838,0.446104 0.030097,0.701698 0.1272316,0.452098 0.5241072,1.678087 0.5976623,1.8463 0.036607,0.08375 0.066584,0.193001 0.066584,0.242783 0,0.04977 0.032176,0.134406 0.071529,0.188099 0.039366,0.05369 0.087111,0.157122 0.1061163,0.229817 0.2716697,1.039244 0.3934664,1.435603 0.6599727,2.147867 0.1728371,0.461921 0.3437798,0.977235 0.3798603,1.145158 0.065046,0.302713 0.064581,0.307709 -0.052916,0.587896 -0.098716,0.235399 -0.113939,0.321354 -0.091136,0.514653 0.026239,0.222421 0.3123032,1.107012 0.4203987,1.30001 0.044174,0.07883 0.075869,0.08861 0.2128844,0.06542 0.3285421,-0.05557 0.3855634,-0.105402 0.2598926,-0.227158 -0.044007,-0.04263 -0.039627,-0.06402 0.021988,-0.107545 0.058799,-0.0415 0.076891,-0.115294 0.076891,-0.313423 0,-0.315939 0.063681,-0.358271 0.2986536,-0.198513 0.08942,0.06079 0.169217,0.09152 0.177328,0.06825 0.0081,-0.02323 0.04276,-0.04228 0.077,-0.04228 0.08285,0 0.07998,-0.110521 -0.0036,-0.141172 -0.1206,-0.04423 -0.07584,-0.152754 0.06298,-0.152754 0.107971,0 0.131196,-0.01881 0.142846,-0.11552 0.0084,-0.07048 0.03709,-0.110794 0.07339,-0.103503 0.08098,0.01618 0.226182,-0.0307 0.226182,-0.07312 0,-0.01898 -0.02472,-0.03359 -0.05493,-0.03252 -0.191651,0.0067 -0.302897,-0.01993 -0.326412,-0.0785 -0.03653,-0.09094 0.06383,-0.142559 0.219486,-0.112806 0.120797,0.02308 0.125046,0.01926 0.07593,-0.06842 -0.05457,-0.09744 -8.95e-4,-0.213473 0.09884,-0.213473 0.05978,0 0.206835,-0.127246 0.206835,-0.178953 0,-0.02197 -0.02968,-0.02912 -0.06593,-0.01581 -0.03924,0.01432 -0.06591,4.27e-4 -0.06591,-0.03452 0,-0.03928 0.04718,-0.05692 0.142815,-0.05339 0.07855,0.0028 0.170774,-0.0032 0.204923,-0.01357 0.03823,-0.01154 0.132191,0.07812 0.244464,0.233255 0.344448,0.475928 0.882362,0.725271 1.649077,0.764416 0.378614,0.01934 0.454351,0.0097 0.813036,-0.103335 l 0.395521,-0.124595 0.01326,-0.264058 c 0.009,-0.180812 -0.01655,-0.358042 -0.08124,-0.56219 -0.112531,-0.355068 -0.375876,-0.823028 -0.463162,-0.823028 -0.03776,0 -0.06216,-0.04322 -0.06216,-0.110139 0,-0.09549 -0.0091,-0.102815 -0.06927,-0.05517 -0.07293,0.05781 -0.08397,0.0501 -0.196546,-0.137571 -0.02374,-0.03958 -0.07051,-0.06191 -0.10395,-0.04963 -0.03345,0.01221 -0.161972,-0.02667 -0.285613,-0.08654 -0.328072,-0.158856 -1.052206,-0.210644 -1.444922,-0.103336 -0.299671,0.0819 -0.302232,0.08069 -0.325861,-0.150486 -0.0119,-0.116401 -0.02541,-0.125603 -0.177684,-0.121174 -0.145378,0.0042 -0.164807,-0.0072 -0.164807,-0.09453 0,-0.05459 0.02472,-0.102055 0.05493,-0.105485 0.03022,-0.0033 0.0846,-0.01007 0.120871,-0.01477 0.03626,-0.0047 0.09865,-0.0113 0.138702,-0.01478 0.04814,-0.0042 0.06557,-0.03271 0.05142,-0.08432 -0.0165,-0.0603 0.0093,-0.0839 0.113983,-0.103888 0.176763,-0.03379 0.171138,-0.08614 -0.01847,-0.172142 -0.08459,-0.03838 -0.153809,-0.0978 -0.153809,-0.132085 0,-0.08169 0.131179,-0.128678 0.174093,-0.06234 0.02487,0.03846 0.0402,0.0347 0.06011,-0.01492 0.01781,-0.04441 0.08175,-0.06654 0.192211,-0.06654 h 0.165431 l -0.150864,-0.07729 c -0.194282,-0.09958 -0.260708,-0.195926 -0.184801,-0.268003 0.04587,-0.04359 0.09932,-0.03164 0.284642,0.06344 0.125499,0.0644 0.19761,0.09275 0.160248,0.06297 -0.04885,-0.03889 -0.0631,-0.109176 -0.0508,-0.249986 0.01446,-0.165333 0.0027,-0.203174 -0.0749,-0.242892 -0.05062,-0.02588 -0.092,-0.06556 -0.092,-0.08816 0,-0.06517 0.319068,0.079 0.432919,0.195634 0.05682,0.0582 0.116127,0.09362 0.131768,0.07867 0.01565,-0.01493 -0.0061,-0.05116 -0.04797,-0.08056 -0.07237,-0.05056 -0.07212,-0.05718 0.0042,-0.123222 0.07548,-0.06527 0.08797,-0.06432 0.193278,0.01492 0.06193,0.04653 0.144082,0.0846 0.182571,0.0846 0.08962,0 0.09303,-0.162131 0.0041,-0.194751 -0.09444,-0.03463 -0.08165,-0.07692 0.04244,-0.140389 0.08478,-0.04334 0.122213,-0.04444 0.172022,-0.0048 0.102332,0.08116 0.149883,-0.462612 0.06111,-0.699205 -0.08642,-0.230371 -0.03974,-0.22729 0.115675,0.0078 0.06771,0.102363 0.145798,0.194459 0.173543,0.204664 0.02775,0.01018 0.07734,0.105986 0.110235,0.212808 0.05777,0.187648 0.106057,0.235635 0.157334,0.156353 0.01341,-0.02084 -0.04469,-0.209116 -0.129251,-0.418358 -0.161297,-0.399061 -0.178238,-0.467543 -0.115567,-0.467543 0.021,0 0.08873,0.111388 0.15053,0.247547 0.107593,0.237054 0.206771,0.358735 0.206771,0.253699 0,-0.09413 0.130639,0.04943 0.167009,0.183556 0.03602,0.132837 0.140644,0.2083 0.140644,0.101438 0,-0.09405 -0.357042,-1.089784 -0.428259,-1.194355 -0.03489,-0.05122 -0.05574,-0.115235 -0.04631,-0.142274 0.02157,-0.06183 0.351266,0.654415 0.456309,0.991299 0.0432,0.138579 0.09686,0.270825 0.119259,0.29392 0.02533,0.02615 0.02945,0.0064 0.01083,-0.05247 -0.03564,-0.112698 0.0098,-0.123402 0.08928,-0.02099 0.05058,0.06521 0.06048,0.05294 0.08797,-0.108593 0.01703,-0.100132 0.05785,-0.191902 0.09067,-0.203943 0.03284,-0.01206 0.0597,-0.05486 0.0597,-0.09513 0,-0.117389 0.09241,-0.337692 0.141641,-0.337692 0.02672,0 0.03437,0.05144 0.01876,0.125996 -0.03545,0.169378 0.03036,0.16105 0.08321,-0.0106 0.03166,-0.102723 0.06834,-0.137719 0.148375,-0.141563 0.127457,-0.0062 0.235712,-0.132611 0.206251,-0.241009 -0.01432,-0.05245 0.0068,-0.08512 0.0638,-0.09939 0.04678,-0.01179 0.08565,-0.04264 0.08639,-0.06881 7.02e-4,-0.02617 0.02173,-0.01417 0.04666,0.02674 0.0607,0.09966 0.127789,0.05267 0.127789,-0.08947 0,-0.06329 0.02374,-0.137781 0.05276,-0.165492 0.07836,-0.07488 0.210946,-0.06167 0.210946,0.02099 0,0.05551 0.01179,0.06018 0.05272,0.02099 0.08042,-0.07683 0.114425,-0.06217 0.193084,0.08317 l 0.07225,0.133531 0.05913,-0.102055 c 0.03252,-0.0561 0.06053,-0.08311 0.06221,-0.05999 0.0016,0.02309 0.04381,0.08885 0.09367,0.1461 0.08817,0.101263 0.09232,0.101869 0.152352,0.02343 0.05873,-0.07674 0.06168,-0.07527 0.06168,0.0299 0,0.13754 0.08619,0.198508 0.0925,0.06542 0.0026,-0.05333 0.0093,-0.169564 0.01507,-0.258297 0.0068,-0.103522 -0.0106,-0.169013 -0.0483,-0.182835 -0.0323,-0.0119 -0.04647,-0.04047 -0.03152,-0.0636 0.0171,-0.02645 0.0397,-0.02277 0.06086,0.01 0.02368,0.03659 0.04252,0.02543 0.06342,-0.03751 0.01637,-0.04926 0.04818,-0.08952 0.07073,-0.08952 0.05932,0 0.05043,0.310103 -0.01059,0.368385 -0.03906,0.03734 -0.03931,0.07497 -10e-4,0.155244 0.03398,0.07125 0.03683,0.140283 0.0086,0.210814 -0.03523,0.08856 -0.02139,0.124746 0.08895,0.232589 0.07185,0.07025 0.130638,0.145965 0.130638,0.168264 0,0.02231 0.04023,0.0405 0.08941,0.0405 0.07095,0 0.08127,-0.01516 0.04989,-0.07348 -0.02176,-0.04043 -0.03084,-0.09661 -0.02022,-0.12488 0.02513,-0.06691 0.217598,0.04808 0.249575,0.1491 0.01221,0.03864 0.01266,-0.05254 8.29e-4,-0.20267 -0.02474,-0.314559 0.01167,-0.283863 0.157238,0.132687 0.06656,0.190426 0.124384,0.286344 0.181081,0.300512 0.0458,0.01142 0.08326,0.05761 0.08326,0.10261 0,0.0854 0.184971,0.30401 0.25724,0.304005 0.05445,0 0.225732,0.278205 0.227735,0.36988 8.96e-4,0.03908 0.0298,0.11834 0.06435,0.176066 0.08645,0.144505 0.08404,0.02378 -0.0045,-0.224496 -0.04462,-0.125168 -0.05836,-0.239436 -0.03744,-0.311986 0.03096,-0.107567 0.03769,-0.100554 0.111674,0.11652 0.04332,0.127036 0.07992,0.195616 0.0814,0.152361 0.0022,-0.06508 0.01403,-0.06962 0.06863,-0.02637 0.03624,0.02875 0.06593,0.08886 0.06593,0.133578 0,0.04472 0.01976,0.06966 0.04394,0.05542 0.02416,-0.01432 0.0444,-0.06737 0.04494,-0.117959 8.95e-4,-0.07885 0.0098,-0.07401 0.06185,0.03397 0.121974,0.252454 0.191658,0.513094 0.152841,0.571661 -0.05018,0.07574 -0.05119,0.289156 -0.0014,0.289156 0.02123,0 0.06319,-0.02831 0.09328,-0.06295 0.07424,-0.08546 0.120537,-0.07915 0.153806,0.021 0.01535,0.04619 0.06241,0.08393 0.104592,0.08393 0.09401,0 0.298176,0.200226 0.321202,0.314974 0.01031,0.05185 0.04569,0.07925 0.09219,0.07164 0.0892,-0.01478 0.09112,-0.0039 0.02423,0.136515 -0.0687,0.14411 -0.02889,0.168698 0.138956,0.08577 0.07701,-0.03805 0.150186,-0.05946 0.162577,-0.04759 0.0286,0.02733 -0.252841,0.404565 -0.301857,0.404565 -0.02008,0 -0.03648,0.02594 -0.03648,0.05764 0,0.06337 -0.172307,0.454743 -0.214986,0.48828 -0.08935,0.07021 -0.155535,0.194623 -0.185483,0.348662 -0.06366,0.327525 -0.09079,0.427833 -0.149733,0.55421 -0.06686,0.143344 -0.1112,0.572812 -0.07697,0.745356 0.0153,0.07715 0.05027,0.115461 0.105318,0.115461 0.0531,0 0.0824,0.02988 0.0824,0.08398 0,0.111306 0.120902,0.108426 0.248214,-0.0061 0.09594,-0.08612 0.104795,-0.08685 0.214502,-0.01824 0.09008,0.0564 0.127894,0.06098 0.177621,0.02157 0.03781,-0.02998 0.197769,-0.04854 0.398528,-0.04632 0.184441,0.0021 0.372282,-0.01524 0.41742,-0.03828 0.04514,-0.0231 0.17153,-0.04366 0.280891,-0.04574 0.117305,-0.0022 0.23892,-0.03387 0.296547,-0.07714 0.05372,-0.04031 0.200508,-0.08681 0.32619,-0.103273 0.125679,-0.01657 0.2517,-0.05668 0.280047,-0.08931 0.0559,-0.06438 0.171664,-0.07423 0.387561,-0.03298 0.125724,0.02402 0.131119,0.03126 0.06043,0.08148 -0.06533,0.0464 -0.06868,0.06723 -0.02107,0.131151 0.03107,0.04176 0.08054,0.129432 0.109866,0.194803 0.05726,0.127639 0.02403,0.124473 0.501699,0.04735 0.101581,-0.01639 0.218253,-0.0175 0.259281,-0.0024 0.06682,0.0245 0.06393,0.03822 -0.02754,0.131256 -0.148391,0.150929 -0.01266,0.138203 0.235953,-0.02211 0.206079,-0.132898 0.451985,-0.166727 0.547613,-0.07535 0.02912,0.02784 0.107234,0.0514 0.173573,0.05248 0.09831,0.0015 0.123192,0.02321 0.134527,0.117341 0.01031,0.08715 0.03775,0.11552 0.111104,0.11552 0.05345,0 0.131043,0.03775 0.172443,0.08393 0.08025,0.08955 0.356453,0.118139 0.405709,0.04201 0.05963,-0.09218 0.182814,-0.03845 0.241937,0.105545 0.04838,0.117817 0.09519,0.156455 0.232363,0.191755 0.09449,0.0243 0.176347,0.03822 0.18192,0.03091 0.02657,-0.03482 0.155833,-0.492041 0.175873,-0.622136 0.07127,-0.462723 0.167195,-0.979046 0.226215,-1.217792 0.113461,-0.45898 0.119831,-0.54981 0.06378,-0.909852 -0.04361,-0.280072 -0.04305,-0.388791 0.0027,-0.559364 0.04569,-0.170411 0.04621,-0.271791 0.0026,-0.519692 -0.04524,-0.257198 -0.04373,-0.338457 0.009,-0.492824 0.03479,-0.101684 0.07621,-0.279334 0.09201,-0.394815 0.01581,-0.115471 0.04569,-0.26663 0.06641,-0.335916 0.0207,-0.06929 0.04966,-0.177937 0.06439,-0.241453 0.04022,-0.173596 0.144291,-0.143207 0.178851,0.05225 0.02849,0.161177 0.08853,0.244622 0.140373,0.195079 0.01357,-0.01295 0.04067,-0.104581 0.0603,-0.203667 0.02832,-0.142996 0.01813,-0.212645 -0.04953,-0.338784 -0.101449,-0.189099 -0.104414,-0.250724 -0.02394,-0.495151 0.226827,-0.688981 0.258443,-0.850845 0.233106,-1.193911 -0.02233,-0.302477 -0.0078,-0.403838 0.127367,-0.884644 0.08393,-0.298654 0.181981,-0.72252 0.217901,-0.941931 0.03591,-0.2194151 0.09588,-0.5867426 0.133258,-0.8163322 0.03968,-0.2435486 0.06742,-0.6808994 0.06669,-1.04986 C 27.324012,7.8964053 27.34364,7.6463146 27.39326,7.4754097 27.49118,7.137758 27.45568,6.2601878 27.33004,5.9140161 27.205529,5.5704392 27.10117,5.4858939 26.705371,5.4077321 26.48509,5.3642371 26.33408,5.3393691 26.213861,5.3398551 Z m -0.897352,3.1308525 c 0.01902,0.00126 0.0411,0.016925 0.07674,0.047762 0.04486,0.038809 0.08172,0.091273 0.08194,0.1165611 3.75e-4,0.052267 0.201288,0.1509207 0.30726,0.1509207 0.08455,0 0.17584,0.080239 0.17584,0.154579 0,0.029579 -0.04941,0.065682 -0.109867,0.080168 -0.11771,0.028222 -0.144623,0.083024 -0.05494,0.1118534 0.04283,0.013712 0.04165,0.033056 -0.0054,0.087488 -0.08654,0.100225 -0.137448,0.086202 -0.137448,-0.037959 0,-0.08869 -0.01556,-0.1030815 -0.08788,-0.081167 -0.07232,0.021925 -0.08791,0.00749 -0.08791,-0.081179 0,-0.069658 -0.02425,-0.1078196 -0.06851,-0.1078196 -0.03848,0 -0.05545,-0.02018 -0.03877,-0.045983 0.01637,-0.025304 -0.01357,-0.1019714 -0.06655,-0.1704241 -0.07753,-0.1001942 -0.0859,-0.1364853 -0.04286,-0.1860484 0.02337,-0.026902 0.03932,-0.040045 0.05833,-0.038777 z M 7.481166,8.6599039 c 0.03483,0 0.063359,0.018899 0.063359,0.042004 0,0.02309 -0.040723,0.042004 -0.090487,0.042004 -0.049765,0 -0.07825,-0.0189 -0.063314,-0.042004 0.014921,-0.02309 0.055629,-0.042004 0.090456,-0.042004 z m 17.626471,0.1321447 c 0.120692,0.00141 0.156934,0.037345 0.100287,0.1025594 -0.05653,0.065063 -0.328836,0.081368 -0.367241,0.02199 -0.03535,-0.054664 0.0667,-0.1144212 0.21007,-0.1229964 0.02066,-0.00126 0.03965,-0.0018 0.05688,-0.00151 z M 9.4316125,8.8698464 c 0.025606,0 0.046556,0.0189 0.046556,0.042004 0,0.02309 -0.00874,0.042004 -0.019367,0.042004 -0.010701,0 -0.03162,-0.018899 -0.046556,-0.042004 -0.014921,-0.02309 -0.00619,-0.042004 0.019381,-0.042004 z M 7.6844092,9.2828876 c 0.1793885,0.0019 0.507467,0.1541001 0.4094616,0.1900381 -0.036276,0.013261 -0.065937,0.05041 -0.065937,0.082441 0,0.044589 0.072914,0.057182 0.311271,0.053802 0.3421369,-0.00488 0.3702341,0.00334 0.2981995,0.086214 -0.029871,0.034376 -0.031801,0.056337 -0.00497,0.056337 0.052237,0 0.1707663,-0.1284823 0.1502753,-0.1628883 -0.00783,-0.013118 0.00453,-0.02996 0.027565,-0.037293 0.055251,-0.017605 0.1046546,0.11008 0.075673,0.1955778 -0.01266,0.037161 -0.067414,0.088642 -0.121851,0.1144008 -0.054423,0.025758 -0.1978236,0.097606 -0.3186785,0.159677 -0.1208563,0.06208 -0.2543484,0.15175 -0.2966473,0.199291 -0.062243,0.06996 -0.076893,0.07361 -0.076893,0.01911 0,-0.03703 0.044491,-0.116127 0.098867,-0.175799 0.054376,-0.05967 0.1130951,-0.1448652 0.1304568,-0.1893163 0.027113,-0.069467 0.011308,-0.080787 -0.112657,-0.080787 -0.1028315,0 -0.1803863,0.036138 -0.2704732,0.1259803 -0.1221674,0.121851 -0.2856468,0.169922 -0.2856468,0.083986 0,-0.023098 0.017814,-0.042009 0.039608,-0.042009 0.052343,0 0.2241079,-0.2799547 0.1911093,-0.311486 -0.014167,-0.01357 -0.081671,-0.024497 -0.1501546,-0.024497 -0.10063,0 -0.1245339,-0.018521 -0.1245339,-0.09657 0,-0.053123 -0.02339,-0.118948 -0.051996,-0.1462668 -0.0721,-0.068906 -0.023511,-0.1017597 0.1479544,-0.1000091 z M 25.227183,9.304337 c 0.0039,5.774e-4 0.0086,0.00691 0.01402,0.019557 0.01266,0.030328 0.01119,0.06655 -0.0034,0.080513 -0.01462,0.014022 -0.025,-0.010833 -0.0231,-0.055135 0.0014,-0.030567 0.0059,-0.045886 0.01252,-0.044947 z m -15.727046,1.034291 -0.1757743,0.08952 c -0.096683,0.04926 -0.1823743,0.106164 -0.1904313,0.126492 -0.023346,0.05888 -0.1673014,0.04275 -0.2264726,-0.02538 -0.044671,-0.05142 -0.036006,-0.06868 0.04957,-0.09884 0.057015,-0.02009 0.2025152,-0.04895 0.3233701,-0.06416 z M 7.9340779,10.60612 c 0.00317,5.9e-4 0.00482,0.0034 0.00453,0.0089 -7.656e-4,0.02173 -0.030444,0.07622 -0.065937,0.121053 -0.035478,0.04483 -0.063886,0.06374 -0.063119,0.04201 7.671e-4,-0.02173 0.030444,-0.07622 0.065937,-0.121053 0.026616,-0.03362 0.049238,-0.05267 0.058567,-0.05092 z m 0.7530544,0.195413 c 0.024174,0 0.043931,0.01891 0.043931,0.04201 0,0.02309 -0.019758,0.04201 -0.043931,0.04201 -0.024174,0 -0.043962,-0.01891 -0.043962,-0.04201 0,-0.02309 0.019802,-0.04201 0.043962,-0.04201 z m 0.5405904,0 c 0.2684611,0 1.0217623,0.164253 0.9163083,0.199789 -0.0326,0.01096 -0.101808,-2.03e-4 -0.1538056,-0.02488 -0.051994,-0.02466 -0.1934256,-0.05187 -0.3142793,-0.06043 -0.1208563,-0.0085 -0.2543484,-0.03037 -0.2966474,-0.04849 -0.056607,-0.02425 -0.076893,-0.01417 -0.076893,0.03846 0,0.03928 0.039532,0.08128 0.087866,0.09336 0.1162744,0.02905 0.1114823,0.07954 -0.010999,0.115186 -0.2036456,0.05932 -0.497006,0.06669 -0.5522376,0.01387 -0.034936,-0.03339 -0.1492354,-0.04809 -0.3130508,-0.04033 -0.1419259,0.0068 -0.2703042,-0.0068 -0.2852897,-0.0299 -0.04223,-0.0653 0.2704385,-0.13017 0.6285916,-0.130426 0.2829973,-2.03e-4 0.3170597,-0.008 0.2692749,-0.06322 -0.046887,-0.05398 -0.032402,-0.063 0.1011275,-0.063 z m 16.1780803,0.0028 c 0.09546,3.02e-4 0.112974,0.0163 0.112974,0.05424 0,0.05301 -0.04326,0.06875 -0.188975,0.06875 -0.103949,0 -0.211685,0.02173 -0.239447,0.04825 -0.02776,0.02653 -0.115745,0.05142 -0.195543,0.05533 -0.07979,0.0038 -0.174752,0.01978 -0.211009,0.03529 -0.08311,0.03556 -0.181292,-0.02118 -0.140508,-0.08122 0.0628,-0.09239 0.221829,-0.136788 0.59349,-0.165604 0.126431,-0.0098 0.211744,-0.01524 0.269014,-0.01507 z M 7.8305806,10.979964 c 0.056669,0.0019 0.1094469,0.01608 0.1094469,0.04056 0,0.01806 -0.060497,0.03285 -0.1344356,0.03285 -0.077045,0 -0.1230264,-0.01765 -0.1076994,-0.04133 0.015478,-0.02394 0.076019,-0.03407 0.1326881,-0.03206 z m 3.1172664,0.297525 c 0.007,-6.53e-4 0.01544,0.0015 0.02454,0.0069 0.02417,0.01432 0.04393,0.03424 0.04393,0.04444 0,0.01018 -0.01976,0.01849 -0.04393,0.01849 -0.02419,0 -0.04397,-0.01997 -0.04397,-0.04444 0,-0.01529 0.0077,-0.02426 0.01944,-0.02538 z m -1.6898733,0.106865 c 0.2372696,7.15e-4 0.3396441,0.01924 0.4012132,0.07248 0.045469,0.03932 0.082667,0.08437 0.082667,0.100174 0,0.03184 -0.4550054,0.03878 -0.5932946,0.009 C 8.749234,11.48018 8.80776,11.383028 9.2579758,11.384387 Z m 0.3118195,0.299962 c 0.020407,-6.53e-4 0.043736,0.01235 0.062184,0.04094 0.014921,0.02309 0.066178,0.042 0.1138487,0.042 0.047674,0 0.098066,0.02836 0.1119794,0.063 0.013857,0.03463 0.062736,0.063 0.1084835,0.063 0.1461002,0 0.089205,0.07351 -0.081588,0.105425 -0.2376288,0.04442 -0.7580344,0.05549 -0.9119086,0.01938 -0.072507,-0.01701 -0.206006,-0.03318 -0.2966474,-0.0359 -0.090639,-0.0027 -0.1648072,-0.02189 -0.1648072,-0.04254 0,-0.0414 0.2637861,-0.08939 0.5722657,-0.104095 0.1092969,-0.0052 0.2212248,-0.02277 0.2487314,-0.039 0.027505,-0.01624 0.081461,-0.01802 0.1199067,-0.0039 0.046013,0.01687 0.069886,0.0026 0.069886,-0.04184 0,-0.04219 0.021446,-0.0656 0.0477,-0.06642 z m 3.0856918,0.968804 c 8.31e-4,-2.14e-4 0.0018,-8.8e-5 0.003,3.21e-4 0.0061,0.0021 0.01689,0.01096 0.03318,0.02641 0.03004,0.02849 0.04353,0.06236 0.03001,0.0753 -0.01356,0.01296 -0.03812,-0.01031 -0.05462,-0.0518 -0.01312,-0.03273 -0.01743,-0.04895 -0.01167,-0.05024 z m 0.313376,0.415921 c 0.01206,0 0.04314,0.03782 0.06902,0.08398 0.02588,0.0462 0.03716,0.08393 0.02508,0.08393 -0.01206,0 -0.04314,-0.03774 -0.06902,-0.08393 -0.02588,-0.0462 -0.03716,-0.08398 -0.02506,-0.08398 z m 1.195708,0.0576 c 0.0162,-0.0062 0.0498,0.108733 0.077,0.309821 0.02757,0.20367 0.017,0.267011 -0.03152,0.18893 -0.01071,-0.0173 -0.03175,-0.154322 -0.04667,-0.304447 -0.01281,-0.129026 -0.01,-0.190028 0.0013,-0.194304 z m 3.706455,0.950185 c -0.04802,0 -0.05704,0.126013 -0.01627,0.227547 0.03042,0.0757 0.05736,0.08075 0.145648,0.02736 0.05316,-0.03214 0.05136,-0.05391 -0.01206,-0.146326 -0.04094,-0.0597 -0.09377,-0.108593 -0.117377,-0.108593 z m 3.615638,2.10022 c 0.07856,3.21e-4 0.187116,0.0119 0.241224,0.02575 0.146569,0.03753 0.275168,0.266416 0.275168,0.489608 0,0.242423 -0.03319,0.323895 -0.131842,0.323895 -0.04316,0 -0.08988,0.02837 -0.103794,0.06297 -0.02771,0.069 -0.203859,0.08804 -0.203859,0.02205 0,-0.0227 -0.05622,-0.03018 -0.12601,-0.01693 -0.110913,0.02117 -0.131754,0.0084 -0.173705,-0.106604 -0.02622,-0.07185 -0.0783,-0.141866 -0.115699,-0.155581 -0.07481,-0.02745 -0.09421,-0.141941 -0.02402,-0.141941 0.0683,0 0.0517,-0.151562 -0.02311,-0.21087 -0.0598,-0.04743 -0.05898,-0.06164 0.0079,-0.132085 0.05105,-0.05385 0.08908,-0.06527 0.119773,-0.03595 0.0701,0.06697 0.115281,0.05091 0.115281,-0.04101 0,-0.06687 0.02908,-0.08387 0.142846,-0.08343 z m -9.072176,0.438199 c 0.09121,2.7e-5 0.139967,0.04416 0.139967,0.130984 0,0.0562 0.01981,0.102148 0.04395,0.102148 0.08894,0 0.04057,0.08319 -0.06276,0.107985 -0.05868,0.01416 -0.117496,0.05248 -0.130713,0.08539 -0.01326,0.03291 -0.07297,0.07759 -0.132807,0.09936 -0.07603,0.02763 -0.123177,0.09067 -0.156625,0.209372 -0.05501,0.195209 -0.115948,0.216552 -0.17739,0.06211 -0.06132,-0.154094 -0.05296,-0.362946 0.02136,-0.532883 0.04747,-0.108557 0.111771,-0.165072 0.246339,-0.21652 0.08391,-0.0321 0.15395,-0.04795 0.208678,-0.04791 z m 11.371004,1.996834 c -0.0107,0 -0.03162,0.01889 -0.04656,0.04201 -0.01492,0.0231 -0.0062,0.04201 0.0194,0.04201 0.02561,0 0.04654,-0.01889 0.04654,-0.04201 0,-0.0231 -0.0086,-0.04201 -0.01936,-0.04201 z m -9.360702,0.125993 c -0.0107,0 -0.0316,0.01889 -0.04652,0.04201 -0.01492,0.02309 -0.0062,0.04201 0.01938,0.04201 0.02561,0 0.04652,-0.0189 0.04652,-0.04201 0,-0.0231 -0.0086,-0.04201 -0.01939,-0.04201 z m 3.686654,0.569391 c -0.06069,0.0028 -0.15151,0.06289 -0.15151,0.118651 0,0.03036 -0.05883,0.138323 -0.130714,0.239959 -0.07363,0.104126 -0.120571,0.216132 -0.107473,0.256576 0.01403,0.04359 -0.01808,0.106117 -0.0819,0.159116 -0.07577,0.06295 -0.107115,0.135702 -0.112234,0.260624 -0.008,0.194751 -0.03812,0.24738 -0.093,0.162503 -0.02435,-0.03766 -0.06512,-0.04579 -0.118472,-0.02365 -0.04474,0.01862 -0.102662,0.03067 -0.12874,0.02693 -0.02606,-0.0039 -0.07393,0.04057 -0.106305,0.0984 -0.063,0.112461 -0.190682,0.148889 -0.147819,0.04217 0.03138,-0.07819 -0.02521,-0.0808 -0.139153,-0.0064 -0.128408,0.08387 -0.361801,0.118305 -0.387884,0.05724 -0.01608,-0.03767 -0.03291,-0.03552 -0.06501,0.0084 -0.03681,0.05043 -0.05397,0.04916 -0.114497,-0.0086 -0.03914,-0.03742 -0.09535,-0.05978 -0.124848,-0.04973 -0.02951,0.01007 -0.130729,0.02522 -0.224924,0.03376 -0.140764,0.01281 -0.191623,0.0441 -0.285644,0.176088 -0.176691,0.248016 -0.243348,0.244121 -0.207774,-0.01206 0.03695,-0.266249 -0.03373,-0.446092 -0.151671,-0.385783 -0.128693,0.06581 -0.173458,0.04763 -0.23673,-0.0962 -0.05265,-0.11965 -0.08094,-0.1368 -0.229673,-0.139017 -0.149207,-0.0022 -0.178776,0.01447 -0.245464,0.138233 -0.0417,0.07739 -0.07583,0.196607 -0.07583,0.264945 0,0.126343 -0.0952,0.172906 -0.157302,0.0769 -0.02096,-0.0324 -0.04331,-0.02575 -0.07068,0.021 -0.02204,0.0376 -0.06873,0.06836 -0.103794,0.06836 -0.03505,0 -0.06374,0.02944 -0.06374,0.06543 0,0.03602 -0.01935,0.05404 -0.04303,0.04005 -0.02368,-0.01403 -0.08196,-0.0054 -0.129508,0.01886 -0.06738,0.03447 -0.09526,0.02916 -0.126313,-0.02389 -0.03241,-0.05533 -0.05743,-0.05901 -0.134164,-0.01978 -0.05188,0.02654 -0.09435,0.03749 -0.09435,0.02433 0,-0.01326 -0.04222,-0.0024 -0.09382,0.024 -0.06983,0.0357 -0.07944,0.05653 -0.03753,0.08128 0.04249,0.02507 0.02981,0.05853 -0.05152,0.136228 -0.05927,0.05663 -0.136335,0.115235 -0.171214,0.130202 -0.0481,0.02063 -0.05016,0.03313 -0.0085,0.05171 0.07562,0.03371 0.0692,0.10151 -0.0097,0.10151 -0.05985,0 -0.2931,0.413703 -0.343301,0.608896 -0.0119,0.04618 -0.03506,0.115139 -0.05154,0.153198 -0.01909,0.04409 0.0042,0.09959 0.06421,0.153032 0.06901,0.06143 0.07977,0.09237 0.0403,0.115688 -0.04003,0.02363 -0.03382,0.04586 0.02412,0.08634 0.07378,0.05155 0.07205,0.06433 -0.03198,0.235083 -0.06048,0.09929 -0.123765,0.241734 -0.140644,0.316526 -0.02802,0.124187 -0.01705,0.143674 0.126508,0.224611 0.180118,0.10154 0.185087,0.113306 0.0803,0.191147 -0.07256,0.05391 -0.0727,0.06032 -0.0016,0.113186 0.05957,0.04427 0.06419,0.06744 0.02199,0.110247 -0.04195,0.04256 -0.04162,0.0583 0.0016,0.07343 0.03022,0.01059 0.05493,0.05479 0.05493,0.09824 0,0.09025 0.122514,0.165535 0.271767,0.16693 0.07048,6.57e-4 0.123178,0.0426 0.171375,0.136471 0.04794,0.09334 0.105784,0.13962 0.185806,0.148722 0.06392,0.0073 0.15592,0.06144 0.204442,0.120389 0.05813,0.07062 0.136033,0.109473 0.228413,0.113924 0.07713,0.0038 0.148256,0.02981 0.158111,0.05806 0.02671,0.07658 0.118567,0.06224 0.208354,-0.03257 0.04376,-0.04619 0.111649,-0.08398 0.150864,-0.08398 0.03921,0 0.105164,-0.03781 0.146552,-0.08398 0.04139,-0.04619 0.110081,-0.08614 0.15261,-0.0888 0.04254,-0.0026 0.107009,-0.0074 0.143267,-0.0106 0.04038,-0.0034 0.06669,-0.0498 0.06791,-0.11956 0.0026,-0.146747 0.02923,-0.16896 0.163805,-0.136682 0.07283,0.0175 0.118971,0.06448 0.135851,0.138521 0.04751,0.208331 0.09347,0.240738 0.224792,0.15852 0.0791,-0.0495 0.157837,-0.06422 0.245463,-0.04582 0.169881,0.03567 0.177807,0.15359 0.008,0.121264 -0.0695,-0.01326 -0.176874,0.0048 -0.252712,0.04279 -0.150546,0.07512 -0.24171,0.08483 -0.24171,0.02565 0,-0.02238 -0.02965,-0.02979 -0.06591,-0.01657 -0.09523,0.03492 -0.08102,0.09919 0.02198,0.09919 0.04835,0 0.08791,0.01889 0.08791,0.04201 0,0.0231 0.03789,0.04201 0.08422,0.04201 0.04632,0 0.09421,0.02361 0.106401,0.05248 0.01326,0.03135 0.02356,0.02291 0.02565,-0.02099 0.0018,-0.04043 0.01179,-0.07345 0.02185,-0.07345 0.01007,0 0.0462,-0.01018 0.08023,-0.02271 0.04927,-0.01806 0.06053,0.02686 0.05504,0.220456 -0.0079,0.279449 -0.05364,0.444272 -0.113461,0.408943 -0.06201,-0.03664 -0.400893,0.317908 -0.372189,0.38938 0.01341,0.03336 0.02435,0.0803 0.02435,0.104344 0,0.02969 0.01802,0.02936 0.05642,-0.0011 0.07821,-0.06204 0.386629,0.009 0.440845,0.101684 0.04002,0.06834 0.04621,0.06798 0.102271,-0.0054 0.0573,-0.07487 0.05967,-0.07452 0.05967,0.009 0,0.05281 0.03589,0.09608 0.09107,0.109854 0.140525,0.03512 0.44768,-0.0054 0.491027,-0.06478 0.02454,-0.03358 0.03294,0.0048 0.02284,0.104342 -0.01632,0.160828 0.03458,0.21338 0.08504,0.08777 0.02326,-0.05792 0.03472,-0.05259 0.06768,0.03147 0.03944,0.100565 0.04018,0.100688 0.115471,0.0173 0.113153,-0.125438 0.283752,-0.211088 0.304123,-0.152697 0.02754,0.07899 0.120055,0.05461 0.294185,-0.07763 0.09081,-0.06893 0.184719,-0.113782 0.208713,-0.09962 0.024,0.01416 0.06048,-2.15e-4 0.08108,-0.03208 0.03939,-0.06088 0.3241,-0.07286 0.534184,-0.02249 0.0918,0.02203 0.121489,0.01031 0.143642,-0.05629 0.01536,-0.04622 0.05624,-0.08411 0.09088,-0.08411 0.03742,0 0.06296,-0.04151 0.06296,-0.102271 0,-0.07723 -0.03498,-0.114328 -0.142847,-0.151691 -0.08526,-0.02951 -0.186248,-0.115259 -0.250541,-0.212697 -0.05924,-0.08976 -0.123524,-0.163209 -0.142844,-0.163209 -0.0193,0 -0.03511,-0.03781 -0.03511,-0.08398 0,-0.05442 0.02932,-0.08398 0.0832,-0.08398 0.09291,0 0.150956,-0.09407 0.155491,-0.251923 0.0028,-0.09736 0.01657,-0.103949 0.189783,-0.09087 0.123612,0.0093 0.186777,-0.0028 0.186777,-0.03602 0,-0.02754 0.02773,-0.03991 0.06161,-0.02749 0.03663,0.01341 0.07058,-0.01031 0.08376,-0.0585 0.03258,-0.119031 0.246968,-0.104996 0.375619,0.0246 0.108605,0.109413 0.202374,0.132958 0.248088,0.06226 0.01492,-0.0231 0.09027,-0.04208 0.167395,-0.04217 0.0914,-1.07e-4 0.186151,-0.04038 0.272093,-0.115521 0.0896,-0.07836 0.188138,-0.118756 0.307612,-0.12616 0.09827,-0.0062 0.198725,-0.04032 0.227799,-0.07766 0.02861,-0.03674 0.075,-0.05329 0.103086,-0.03669 0.02808,0.01656 0.103555,0.0054 0.167721,-0.02515 0.156979,-0.0744 0.446246,-0.336289 0.446246,-0.404009 0,-0.02997 0.02898,-0.05449 0.06439,-0.05449 0.0354,0 0.08619,-0.03899 0.112913,-0.08665 0.08128,-0.145106 -0.01721,-0.206198 -0.347474,-0.215525 l -0.291246,-0.008 0.296648,-0.01477 c 0.271603,-0.01341 0.37855,-0.06045 0.241677,-0.106212 -0.04043,-0.01357 -0.03493,-0.03991 0.02073,-0.09996 0.06301,-0.06797 0.06942,-0.119426 0.03829,-0.307439 -0.0435,-0.263053 -0.124066,-0.337139 -0.366659,-0.337139 -0.113378,0 -0.159943,-0.01545 -0.139832,-0.0466 0.01777,-0.02753 0.09189,-0.03705 0.180759,-0.02328 0.22927,0.03555 0.34085,-0.08952 0.304701,-0.341511 -0.01509,-0.105272 -0.05677,-0.222333 -0.09263,-0.260181 -0.03584,-0.03783 -0.0781,-0.130622 -0.09392,-0.206161 -0.01581,-0.07553 -0.0556,-0.147155 -0.08842,-0.159171 -0.03283,-0.0119 -0.05967,-0.04821 -0.05967,-0.0804 0,-0.03218 -0.04084,-0.05852 -0.09079,-0.05852 -0.127504,0 -0.2608,-0.07561 -0.2608,-0.147938 0,-0.03826 -0.03689,-0.0573 -0.09888,-0.05102 -0.07419,0.0074 -0.114591,-0.02407 -0.161765,-0.126493 -0.06223,-0.135114 -0.148332,-0.175603 -0.200818,-0.09447 -0.04368,0.06756 -0.08054,0.05141 -0.283804,-0.124399 -0.169909,-0.14693 -0.198421,-0.158483 -0.244105,-0.09878 -0.04609,0.06025 -0.05438,0.05775 -0.07639,-0.0226 -0.01534,-0.05603 -0.05956,-0.09021 -0.116698,-0.09021 -0.07097,0 -0.09211,-0.02638 -0.09243,-0.115459 -5.64e-4,-0.151227 -0.201552,-0.481719 -0.460095,-0.756492 -0.189231,-0.201104 -0.223131,-0.219846 -0.397945,-0.219846 -0.105105,0 -0.203342,-0.01894 -0.218319,-0.04209 -0.009,-0.01403 -0.02594,-0.01935 -0.04617,-0.01841 z m 4.135035,4.575415 c -0.02037,-0.0015 -0.04169,0.01154 -0.0661,0.03951 -0.088,0.101315 0.05312,0.219767 0.393964,0.330655 0.113067,0.03679 0.20021,0.02995 0.252288,-0.01984 0.03754,-0.03588 0.0039,-0.07786 -0.134043,-0.167212 -0.101294,-0.0656 -0.224707,-0.119634 -0.274259,-0.120057 -0.04955,-4.28e-4 -0.11071,-0.02047 -0.135911,-0.04455 -0.0119,-0.01131 -0.02374,-0.0175 -0.03595,-0.01841 z m -0.25064,0.162448 c -0.01596,9.49e-4 -0.02792,0.0112 -0.04001,0.02943 -0.05653,0.08534 -0.05034,0.112841 0.03624,0.161014 0.08714,0.04851 0.202967,0.05793 0.242941,0.01973 0.01477,-0.01416 -0.03314,-0.0739 -0.106473,-0.132868 -0.06831,-0.05491 -0.106069,-0.07893 -0.132688,-0.07729 z m -3.640389,0.193803 c 0.02416,0 0.04395,0.01888 0.04395,0.04201 0,0.02309 -0.01976,0.04201 -0.04395,0.04201 -0.02416,0 -0.04395,-0.0189 -0.04395,-0.04201 0,-0.0231 0.01976,-0.04201 0.04395,-0.04201 z m 3.663199,0.143282 c -0.338852,0.0026 -0.455083,0.02943 -0.455083,0.09712 0,0.04863 -0.03347,0.05688 -0.147726,0.03641 -0.180152,-0.03228 -0.294742,0.05946 -0.204312,0.163564 0.04722,0.05437 0.03669,0.05661 -0.08118,0.01731 -0.119275,-0.03973 -0.156338,-0.03087 -0.311499,0.07407 -0.09687,0.06554 -0.171649,0.13225 -0.166165,0.148271 0.0054,0.01601 0.168181,0.188653 0.361547,0.383621 l 0.351583,0.354477 0.102424,-0.18926 c 0.05635,-0.104096 0.105784,-0.271808 0.109867,-0.372651 0.0061,-0.149326 0.02084,-0.17925 0.07969,-0.161386 0.09953,0.03019 0.22276,-0.09656 0.189947,-0.195357 -0.0299,-0.09007 0.02859,-0.102302 0.162152,-0.03403 0.11077,0.05663 0.447039,-0.02877 0.552757,-0.140388 0.118401,-0.125001 0.0068,-0.177632 -0.384843,-0.181446 -0.0578,-5.36e-4 -0.110771,-7.47e-4 -0.159176,-3.22e-4 z m -3.207729,0.123224 c -0.0067,-9.53e-4 -0.01119,0.01432 -0.01252,0.04494 -0.0019,0.04426 0.0084,0.06908 0.02306,0.05511 0.01462,-0.01403 0.01615,-0.05013 0.0034,-0.08044 -0.0052,-0.01252 -0.01007,-0.01903 -0.01402,-0.0196 z m 4.418871,0.0744 c -0.11596,0.003 -0.217321,0.07297 -0.403123,0.236522 -0.150855,0.132807 -0.271255,0.266653 -0.267559,0.297467 0.0048,0.03932 -0.02565,0.04824 -0.101808,0.02998 -0.09497,-0.02281 -0.116973,-0.0054 -0.176264,0.138791 -0.03726,0.09064 -0.115745,0.189359 -0.174382,0.219345 -0.106782,0.05463 -0.279404,0.281516 -0.279404,0.367277 0,0.05715 0.186605,0.08966 0.63723,0.111032 0.193368,0.009 0.47335,0.03697 0.622153,0.06184 0.148797,0.02481 0.336667,0.04434 0.417487,0.04337 0.08082,-9.5e-4 0.295248,0.01862 0.476531,0.04344 0.181281,0.0248 0.468034,0.06045 0.637229,0.07922 0.450853,0.05004 0.460049,0.05017 0.547548,0.0054 0.06616,-0.03385 0.07715,-0.08009 0.06233,-0.262454 -0.04806,-0.592044 -0.205606,-0.82449 -0.525158,-0.774941 -0.08286,0.01281 -0.150638,0.008 -0.150638,-0.01083 0,-0.01876 -0.05933,-0.04548 -0.131841,-0.05933 -0.07251,-0.01371 -0.131845,-0.0518 -0.131845,-0.08433 0,-0.03252 -0.03959,-0.06902 -0.08791,-0.0811 -0.05479,-0.01371 -0.08789,-0.05726 -0.08789,-0.115745 0,-0.05158 -0.03459,-0.118853 -0.0769,-0.149537 -0.09332,-0.06768 -0.283622,-0.07514 -0.347992,-0.01357 -0.03331,0.03181 -0.0949,0.02571 -0.211913,-0.021 -0.101479,-0.04051 -0.176308,-0.06274 -0.245887,-0.06089 z m -5.285389,0.0098 c 0.01007,0.0014 0.01462,0.02705 0.01492,0.07956 7.05e-4,0.125393 -0.02082,0.147969 -0.05649,0.05917 -0.01235,-0.03096 -0.005,-0.08292 0.01661,-0.11546 0.0107,-0.01618 0.01893,-0.02407 0.02502,-0.02328 z m 6.984194,0.09331 c -0.0098,-4.31e-4 -0.01874,0.0069 -0.0281,0.02104 -0.06903,0.104199 -0.04417,0.260908 0.05799,0.365394 l 0.09891,0.101119 0.01296,-0.09936 c 0.0072,-0.05464 -0.0193,-0.173054 -0.05869,-0.263118 -0.03742,-0.08557 -0.06173,-0.124111 -0.08302,-0.125107 z m -4.491827,0.411744 c -0.0054,3.24e-4 -0.01007,0.0015 -0.01386,0.004 -0.07847,0.04633 -0.05079,0.144172 0.07498,0.264779 0.207851,0.199307 0.528235,0.429272 0.598083,0.429272 0.0368,0 0.07914,0.01891 0.09407,0.04201 0.04168,0.06445 0.109867,0.04979 0.109867,-0.02355 0,-0.07197 -0.303834,-0.438413 -0.36349,-0.438413 -0.02047,0 -0.02498,0.0189 -0.01007,0.04201 0.01491,0.02309 -0.0014,0.04201 -0.03624,0.04201 -0.03487,0 -0.07293,-0.0349 -0.0846,-0.07755 -0.02555,-0.09342 -0.286613,-0.289429 -0.368729,-0.284283 z m 2.290578,0.193862 c 0.017,0 0.0812,0.03781 0.142651,0.08398 0.06144,0.04619 0.09423,0.08335 0.07286,0.08262 -0.0466,-0.0016 -0.259941,-0.166595 -0.215504,-0.166595 z m -2.941754,0.352302 c -0.03016,2.14e-4 -0.02561,0.0361 0.0038,0.141172 0.01462,0.05198 0.04396,0.09453 0.06533,0.09453 0.06649,0 0.04243,-0.19966 -0.02712,-0.225164 -0.01812,-0.0067 -0.03199,-0.0106 -0.04206,-0.0106 z m -0.211685,0.06925 c -0.04468,-0.0028 -0.07583,0.03355 -0.07583,0.10345 0,0.112449 -0.115698,0.145574 -0.206219,0.05907 -0.05379,-0.05141 -0.233266,0.01731 -0.233266,0.08935 0,0.0223 -0.03459,0.0406 -0.0769,0.04083 -0.09922,4.29e-4 -0.194702,0.185259 -0.128407,0.248597 0.07672,0.07329 -0.02228,0.05122 -0.109842,-0.02448 -0.07329,-0.06336 -0.08038,-0.06353 -0.08038,-0.0016 0,0.108962 -0.169964,0.232396 -0.300338,0.218071 -0.134361,-0.01478 -0.270958,0.08282 -0.270958,0.193527 0,0.06155 -0.03003,0.07286 -0.162639,0.0615 -0.129371,-0.01119 -0.179534,0.0067 -0.245237,0.08637 -0.04541,0.0552 -0.09854,0.09094 -0.118019,0.07946 -0.01948,-0.01154 -0.04537,0.01545 -0.05752,0.05985 -0.01595,0.05826 -0.04803,0.07431 -0.114889,0.05761 -0.05102,-0.01281 -0.09271,-0.0042 -0.09271,0.01905 0,0.02322 -0.07403,0.05546 -0.164483,0.07169 -0.09045,0.01618 -0.184038,0.04105 -0.207967,0.05519 -0.06664,0.03934 -0.215659,0.04393 -0.264778,0.008 -0.05457,-0.03976 -0.602213,-0.02513 -0.675342,0.01806 -0.03091,0.01824 -0.1132,-0.01154 -0.194508,-0.07025 -0.07752,-0.05605 -0.195333,-0.114723 -0.261804,-0.130366 -0.06646,-0.01563 -0.120871,-0.05174 -0.1209,-0.08017 -1.25e-4,-0.08102 -0.336406,-0.422516 -0.386784,-0.392761 -0.0248,0.01478 -0.05339,0.003 -0.06348,-0.02594 -0.01007,-0.02892 -0.05627,-0.05266 -0.102641,-0.05275 -0.05921,-1.09e-4 -0.08841,-0.03454 -0.09819,-0.115686 -0.01142,-0.09508 -0.03547,-0.11546 -0.136017,-0.11546 -0.120573,0 -0.19412,0.05878 -0.299657,0.239515 -0.0341,0.05839 -0.03812,0.101921 -0.01096,0.11796 0.02368,0.01403 0.04303,0.07478 0.04303,0.135128 0,0.130502 0.11371,0.263278 0.225437,0.263285 0.04399,-8e-6 0.108938,0.05361 0.144399,0.119122 0.07322,0.135278 0.338175,0.342785 0.437676,0.342785 0.03645,0 0.07846,0.01891 0.09339,0.04201 0.01492,0.0231 0.08528,0.04201 0.156298,0.04201 0.08545,0 0.185826,0.04893 0.296777,0.144713 0.175889,0.151843 0.271479,0.184442 0.667576,0.227769 0.582258,0.06368 1.17047,-0.0175 1.368834,-0.189096 0.06505,-0.05623 0.09212,-0.05923 0.146523,-0.01602 0.05601,0.04443 0.06675,0.03899 0.06675,-0.03376 0,-0.04766 0.01986,-0.09835 0.04411,-0.112687 0.04859,-0.02871 0.01312,-0.221121 -0.05643,-0.305333 -0.02429,-0.02944 -0.03113,-0.06599 -0.01517,-0.08122 0.03537,-0.03379 0.108603,0.03252 0.175416,0.158894 0.02742,0.05186 0.08938,0.09952 0.137721,0.105878 0.04836,0.0064 0.141534,0.02159 0.207063,0.03385 0.06552,0.01221 0.130954,0.0039 0.145392,-0.01841 0.01446,-0.02236 -0.0051,-0.0406 -0.04362,-0.0406 -0.113424,0 -0.126071,-0.113926 -0.02729,-0.24644 0.0506,-0.0679 0.09201,-0.144171 0.09201,-0.169479 -4e-6,-0.07572 0.07237,-0.05227 0.149659,0.04849 l 0.07251,0.0945 -0.02684,-0.09649 c -0.01477,-0.05307 -0.0038,-0.123041 0.0244,-0.155469 0.02819,-0.03244 0.03981,-0.09322 0.02594,-0.135068 -0.02843,-0.08556 0.126192,-0.208429 0.172378,-0.137013 0.04735,0.0732 0.08951,0.0446 0.216057,-0.146703 0.06834,-0.103315 0.162968,-0.199574 0.210263,-0.213919 0.06639,-0.02014 0.07969,-0.05004 0.05838,-0.13121 -0.01989,-0.07574 -0.01179,-0.09987 0.02923,-0.08621 0.03126,0.01031 0.05106,0.05007 0.04395,0.08808 -0.0074,0.03966 0.01601,0.06915 0.05494,0.06915 0.08365,0 0.09563,-0.292602 0.01512,-0.369548 -0.03271,-0.03124 -0.06438,-0.0471 -0.09117,-0.04881 z m -5.368441,0.299958 c -0.03076,0.0034 -0.07312,0.03774 -0.134691,0.101201 -0.05805,0.05985 -0.126297,0.09649 -0.151705,0.0815 -0.0678,-0.04004 -0.05369,0.06966 0.02107,0.164158 0.0355,0.04482 0.06455,0.117091 0.06455,0.160568 0,0.121475 0.134346,0.07234 0.224628,-0.08209 0.05366,-0.09185 0.07032,-0.180999 0.05292,-0.283451 -0.017,-0.100111 -0.03727,-0.146387 -0.0768,-0.14188 z m -1.464599,1.879099 c -0.0061,9.53e-4 -0.01206,0.0017 -0.01791,0.003 0.0019,4.28e-4 0.004,8.15e-4 0.0061,0.0013 0.0048,-0.0017 0.0069,-0.0026 0.0119,-0.0042 z"
       inkscape:export-xdpi="97.634506"
       inkscape:export-ydpi="97.634506" />
  </g>
</svg>
